<mxfile host="app.diagrams.net" modified="2024-03-21T16:41:59.900Z" agent="Mozilla/5.0 (Windows NT 10.0; Win64; x64) AppleWebKit/537.36 (KHTML, like Gecko) Chrome/122.0.0.0 Safari/537.36" etag="O-Iz9pb-BiLM8ABNf3nt" version="24.0.7" type="github">
  <diagram name="Page-1" id="nUFRBn-OvT3-6YgjMPIj">
    <mxGraphModel dx="2350" dy="796" grid="1" gridSize="10" guides="1" tooltips="1" connect="1" arrows="1" fold="1" page="1" pageScale="1" pageWidth="850" pageHeight="1100" math="0" shadow="0">
      <root>
        <mxCell id="0" />
        <mxCell id="1" parent="0" />
        <mxCell id="DG2oI-M4Yr5_Z9j_e3_I-52" style="edgeStyle=orthogonalEdgeStyle;rounded=1;orthogonalLoop=1;jettySize=auto;html=1;entryX=0.429;entryY=-0.007;entryDx=0;entryDy=0;entryPerimeter=0;curved=0;" edge="1" parent="1" source="DG2oI-M4Yr5_Z9j_e3_I-45" target="DG2oI-M4Yr5_Z9j_e3_I-34">
          <mxGeometry relative="1" as="geometry" />
        </mxCell>
        <mxCell id="DG2oI-M4Yr5_Z9j_e3_I-16" style="edgeStyle=orthogonalEdgeStyle;rounded=1;orthogonalLoop=1;jettySize=auto;html=1;exitX=1;exitY=0;exitDx=0;exitDy=15;exitPerimeter=0;entryX=0;entryY=0.5;entryDx=0;entryDy=0;curved=0;startArrow=classic;startFill=1;labelBackgroundColor=#CCFFCC;" edge="1" parent="1" source="DG2oI-M4Yr5_Z9j_e3_I-1" target="DG2oI-M4Yr5_Z9j_e3_I-15">
          <mxGeometry relative="1" as="geometry">
            <Array as="points">
              <mxPoint x="380" y="375" />
              <mxPoint x="380" y="135" />
            </Array>
          </mxGeometry>
        </mxCell>
        <mxCell id="DG2oI-M4Yr5_Z9j_e3_I-17" value="Worker Data&lt;div&gt;Org Data&lt;/div&gt;&lt;div&gt;Positions Data&lt;/div&gt;&lt;div&gt;Job &amp;amp; Requisition Data&lt;/div&gt;" style="edgeLabel;html=1;align=center;verticalAlign=middle;resizable=0;points=[];labelBackgroundColor=#CCFFE6;" vertex="1" connectable="0" parent="DG2oI-M4Yr5_Z9j_e3_I-16">
          <mxGeometry x="0.2773" y="3" relative="1" as="geometry">
            <mxPoint y="-14" as="offset" />
          </mxGeometry>
        </mxCell>
        <mxCell id="DG2oI-M4Yr5_Z9j_e3_I-18" value="Candidate Data" style="edgeLabel;html=1;align=center;verticalAlign=middle;resizable=0;points=[];labelBackgroundColor=#CCFFE6;fontFamily=Helvetica;fontSize=11;fontColor=default;fillColor=none;gradientColor=none;" vertex="1" connectable="0" parent="DG2oI-M4Yr5_Z9j_e3_I-16">
          <mxGeometry x="-0.6293" y="1" relative="1" as="geometry">
            <mxPoint as="offset" />
          </mxGeometry>
        </mxCell>
        <mxCell id="DG2oI-M4Yr5_Z9j_e3_I-2" value="" style="shape=image;verticalLabelPosition=bottom;labelBackgroundColor=default;verticalAlign=top;aspect=fixed;imageAspect=0;image=data:image/png,iVBORw0KGgoAAAANSUhEUgAAANMAAABVCAYAAADT7tEcAAAAAXNSR0IArs4c6QAAAARnQU1BAACxjwv8YQUAAAAJcEhZcwAAFxEAABcRAcom8z8AACAVSURBVHhe7V0HdFzVmb4jWbbBGEJJYnYTSNndAAmQShpZSCPZQLLZTZxCc2Jr3psZNTdCnKbkUGzJFnLBYGOCg40tvfdmVFwxgdiwCyEcWkJJII26xoAdSZaLbEuz3/e/+55Go6myjGXzvnPumdHc/t//u/9/y3tSAUY2Xq5Vp+ycqy7MFfYgdM1T5ydr1VidLUCANyf6VqhxW+eqcR2z1Xt21qub9zaqFV31buisV08lb1TJnGGxSvYtUMmuueoBL1/vfLViZ52ajTJPZNl9CLq6AAGOLnTXqQ/33ai+DMvy830L1FYQYSuItF3IcVN/6AVJkCZv6J6H9AtT8t7sE+wVxG/d2yDlV7DOjnr1Xt2MAAGOTCSXqlNgaebsvUHdBuvRKRYFBNjXqJL7EfjZnYEoQw0kWGrZQjbUibi/7p+vlnTWqauSywPXMMARgleuU29PLlMXwhLduH+hejm5yLUcINQg5T/UwSMqiCSWS4i2QD3fVad+gr8vxPrsWN3sAAFGFuBizQJpHqPi0l2jEtNapCt5MWFPg0sCht34nilNoWEX2nIAbWLbSPADC9TdXfOUoZsfIMDhRXe9mnBgkZoE4vxJ3CoEKm4+940ko3Iz9MBqeeue9CDl1KvXkWcHrVumNHTlSDqvvLx160/m6wFJO+eqp/tuUpf88So1XncrQIA3DslaVYJ10A/33KD+QKXkbE9FTlfc1EACcZOAhKOFIAH4iXK2QaGvxeeP00PHHPWdXXPVx7bPUZ/C+ut7u+cNTgOLuBChh9aLZYrlQR35NjOQR6ydpEcf9s1Xm/FbRHcxQIBDD8zsk3oXqie5HiI5MimqF0ggKrhYEKSHsj4JAj2OdUvjjtnq3L6F6tyOG9R7dNFDBso9q6dBncsyO+uUdaARddSrP0u9sHpisXKQndaKO4vcvEB4fOds9TlddIAAww+sL87ouxEWZK7qpeJlU04osWw4eBYCf++FKzcH+WYlbVWqizvk4JkT2nMtrM+NXnsYaI3QlsHtRoDl83YAd8DS/RiTxVt1cQECHDzg0o3qu1mdh7XLX5PLsisjg8zwsAZ7G9RepP8fWJ7P4PMcXdRhA11FWKevod1/EEvpEiZjYN9kfXYr/mYfGtWZupgAAYaO5FJVBsti9cJFowuUSfkYfEuEdL2L1WqQ6mJdxIgD114HFqkNJJS3dsvUJwZv9w+kmqOzBwhQPHZco07vrldNtDTZtqXp6jEei/fdIN3dexrVhTr7iMaTtWp032J1EazQ70GmPq6rMvWPQawUiAfrVvf6teqfdREBAhSGjjplQMn2cVbOtjbyZm0o5eo9N6iLkC3k5j5ywDUcrM7lsFTruQ7kjmCmvnIy4WZLT6Pa0TFHfUlnDxAgN7pApH2LVK8cuqYplb+egDVC3DN0mXS2Ixr2RFUKIv0MfdxBK5RpAuFvvQvlFsXOHXXqEp01QIDMIJFobXiYmb7JwL97QTAs5PfD5bmj6yjc6UIfz8JksYVWiJNGav9FBvWuNd7bqHaBXIGFCpAZUI7yfQtVbyZXR3bpeMeuQe3orFNf0VmOSrzQoI4BqSJw7fq4oZIuC04qB0Co/QtV1/bZI3ejJcBhAmZcU2bjDBaJ6wW5UbBQPfSPOvVZneWoB9ZSl4Iwz2c6U/MsFNaKu4M1VAAfUJTJPQtUX7pFIqnkTAbKBMW6bsccdYLO8qZB13XqjN3z1G3eLYp0+dBCwZp3dgYWKoBnkTKtkTwiwTJdrZO/aYEJZwk3XQYRyrNQDWrv9qPc/Q2QA7RI+7JZJO7YgUhQlh/r5G92hCCLX2YiFINs2ixQXUf7ejJABtAt4TZvJovEXay+wCJlxO5GtTirhYI88X3v3jr1rzp5gKMdyYmqFIP+2/SdqsAiFQbI6pZMayjZ8XRlukwnDXA0A+uj4/c0qjtkhypFERhIpD4eWDaoWTp5gAxIwuWD9V6ciVD8uxeyxeccbrHrLAGORnTUq6rkLYO3ekksbkR0zVM/0kkD5EFnvVqW0bpz4waT0vbr1Sd10gBHG7oa1Zkg0YuDNhzg7yeXiCI066QBCsDWGWoc1pXynr/0dSfvLe5qUPfvvE69XScPcLQAVmcMSPMgF8+pg87AA9me+erVzgb1CZ08QIGATL8B2e3jPcZ0QtEDwOctOmmAowFyM3quqty/QB1I9/G5cwe35JUdc9T5OnmAIgHX+dLeBaqLN0VSZcs1KLyAzs656j900gBHOjoXqZM767LMnstUsnOOmq6TBhgiYKF+pS2RHyhrrqm66tRzOlmAIx0g0kKegaRvOuwDuXY3qk3dN6hTddIAQ8SeevVeWKLfc8JKlTE9gQM3qh5YrwqdNMCRCr6xZ898tT19kOmC0C15eY46TScNcJDYWac+K++WSJm0aJ34yD/c6Ue3zlVv00kDHGng+xs669VmDjB37FLJxN8wW87n49s6eYCDRN+tajzWn+08f0p1p2W3FL+BbHU6aYAjDbvmqq9yG5yvr0ol0v4F4vK92tGg/kUnDTBM2DlbfQFeQE/6g4UcB5Cqo2P2wb8jMMBhANZK9/IMJHVQeaDI+3hwRb6okwUYZkDuNek3TOSqEb2BOjVXJwtwpKBrjjp/d6PaLsRJGVRuRGBA730jXwb5ZkP3tepUrEef4QZPquwPQPaYzB7ZOT84yD1iwPeAd85T1+hbDf5gypWhxWp/d2Nw7nGosbNeTe+7WfWmWidZO92skljHXsn7fTppgJGMzkb1vl3zVBd37LyBZJCdprnqzuB/wR56wM07DkR6hv/cLXUMxFrVq7+9GZ9aPiKxvUGdLRsPKSfyPO/YO1/1ds5RM3Wyw4va2hJlPFzmh4n2yHM7a5Mlo6PWdFW1dkmoev2ScZXOd6XdBQIWKMGHBlOtkzw/Vq92dtSqk3SyACMZO+rVOUkMYiqZ+GpjDO7+voYRMohh5yJVteE5ZdjPqcq1z4VMp/2sWntkbdMbViQ0/e6kmnpXUk37dTJUua5XheNf0LF5satBnccbEKnjoHf19vCfCuhkAUYyOOt1zlVtXDNxMCXcJGRaNGI2HsLxb6hp9yRVRXtS1WxKlprOC+f+aO3IevWwaf2YJFKm44aaO5Oq3PovHZsXfXVqPIjTnj4OWMfOh6sdnO8dKeAt8T2NasWBBerB3kXqwT0NI2xL1oh/HZbJVdKKNcnSiP3sh65q+ycdOzJgWFerqZv6yVS1PqnC1td0bEEgabB2vZ3jcADjsOsGNS+ZDDYfAgwn3iRkChDg0CMgU4AAw4SATAECDBMCMgUIMEwIyBQgwDAhIFOAAMOEgExHMWo3j1Ixe4KKrZugZm6eoKYsK+6mAPNJQBkzfzdB1daO0jF5cfLkW8dLnQyTlr9F/1wcjKVlUq/0ISXMRJumWAd/64Fls30ZcKKx9ASJ8+tE2gvy9P9gyHT5irf58p6yemg3sKust/rjJUF/T8Vwk2lymzvOfp263intxffhkqXH+mVR3kPBNxuOcXVm3YRjUc7pk5YP053NWOsHVSTRrSLxbhVt7Vaxtr8pw/mojs2NsD0DCtENgbuhci3KaWlFeXkfU56AQS2JtTyqYu2ok/W2P1twvcDba5reVRJbcwXa3aYqUK/XBi9EW7pR3t9U9Z3fV5euKv4KS8w+Thn2Lapyndsv05mtqhaM0bFqVHj1x0sr2p4QmXl1Sv8TbTn7P1QyhZsuwti8ljJWu1TEmaxj84Pkq9loKtPehjHqb7OJsvhZs/EqZa5y3xVuNP1wWMgUsT6nqjZegTofkXH260RgPwy7E2NXM6rc+YzOkRvlLf8WirU/4JfFsTGabynqfqMQuW2LqzPx7pLKNd1l0eYrdexBwmw5D41KooIkFDCpZmxOhkznNh2bHdOsYyCM10XQ0VY3xBB4nyvc/DGdKjNoDU2nXa6p6LyhaXcnQxHrWp0iN6JNnyqpbH82xLoq17rt9trgB/zGPvFaTOW6h6GAP9S5C0O45b0YNCg8AuVjOj3yO/odiiSWo/ztbt9T6mZ9TGtY2d9oOhQyTWn+CvrZKWWzvmrkj7b0oZ7LdYqcGAt5QXEeU9N/445RJnlNvwefib+LsplWWMbxYMhkWN9Ge3tE/pRhxjFCQD2hWBsnvxt0zuzgmETbnnX1huMLvQHpx8Scwh6LJ+kMZ4mCrrntQZh5H8bLLk43ssJo+aQMjic4KFBJLP738TXW+3SKjBgVtWeFKtb2QkmTbkgguAqiws40lUxmvzrCi50miEghs85K5DHjTwpBcwFllpj2lVDmf8gAMy/rZfsp4NQgBEC7TNtVhmr8Vm79QpeUH+XWuyHk/b7QzfhOKNkX0cc7RCnZT4mjUuCTMpDZPL5AJotsKJZM5c1fQh27ZdIw0BfWW7l2J2bkr+oUOXGMaZ1XUgGLJnUiP9vJNldvHCwvfhrO7xCWS32eThRJplKj+Voofa+ML9ucqT6ZiPA7y/cmPcP+ZV4rU25NF5Jy3JkX5YZM60EdmxvGr09AHZ1+vfysXPcqxmyY/h1ORcvJaFibqpLZ12+g3G7OBdNaqKa6lyFDUDoo+R5RXg626WzVqbLDsJ7rJ9NalOE8rWOyY8rqL4J4+6QODhIHgcphWFfBpYDLlxJoXdkPxlOJqPAcxHKsBwpBKpnYRhk81oXfWI4rK+222LtCbNNVmOXCzk91CZlROJlCykh8Ge4ILFIKkWKte1BHYQ85VqDcCMiROllGWg6EDGs7fq8YIC/DvkHkSSWnRWZ9Xp5iyGTal4mye0SSSc15HfoyJbU+jPcv4AF1a31xx4nW0LAW65IyYyIm4rC1S9rKfEKI9dsKIkQ0/h6OlU8mTrCGdZ+OHSYY8Z/03xJGpzh4YbgGWXD8NOskWIc1ImSZwex7Q0bzXBk0CBGD9fJpP1yXfZ1CN4huknQK9SHPmIg1X8dmBtsTbXnFtWIkh8wq+1S5/T2dYhBC0dbZWAv0EwoDi9+eE1cmH9LJJANHC5TgIwlbSqLxb7v+tz3hxGjTO8vY/khipSy2c6FQMk1cekLItGFRIGOZOKCcFWs71ORVX9cp8sO0E+LSeO2XWdzZgnZmXtNFWqKQEV2u/jwMhZIp0vwBktUnEolS0b4dZVyoUwxEVeIdsIJ3Sfmsh/mira+KO5cFpxpLjy0xrM39lhP10FPg+j0fTHsl6uqTfNSJ2JpekLxRxw4PxsXsGSVVa/tcpWOnIATDXp3NXSmNNH8pxFmfaTnzhO1NYh04Y6MMun+jYk72/yphWCt8n5wzPmcZI36Gjs0Mw1rvKwbbyXpzEMlH2FqGtBAa8lHwaOOYqLPiyymbCRmRkUwyo3VgdjxOpyoehZLJSFzvKgz6yjbIhGOX69i8KINiw/3ZKgoqbaecW/tKI02X6CSZYdi/7VdUHQolk2H/yicGZVXRvksmzhw4sdo+rbSi5QW4hW4+TuqRONZPOZYJ9JoqN+gxRXCt229z7nDy4caIs1G8FWmfHtfIiuF9p99ZMfs4zIJ/dGd9No4zi7NDTGomUECVFJpWasNei4b+iM/nSP6pVPr4jTr1YBjWIn+3KCKzfY+KNp2pYwdhfFXTp0qjide1Muv22U/DKhSm1NGWe3wFhhAxs/Womjxb8elk4kxLMnPSKOKp00EohEyGVedOTK5rWQLlHh1pLu5F+Fy3pm4iUGZh6wFoVe62yw6cHlsvbyFkogsVbd3mk7eC3k3zOh2bE6GIdZs7UULGlHesrQN5P6yjB4Nra3pGnrvNybVqbbIskviATjEYfI6seuOufoPBCdx+Qo4Khh1h+1F/RnLJ9AIGffDsDWuFNdIvZTbgYFPBY87nRcmm6s5BkKVR52HOOjqXjwmx+OmlEecRn7h0DQ3r1ox1eTCdb/UrBpX6HuaJ6Nj8MKwWf0aiMDFDj4o0T9WxmZFOJvY31v443M2sLkhByECmc6dZ/Q8HRpzrxZcXItGSboKSWJvPq1p5vE5RGMoTVQPIJHIuYNPiKripJibH1DV0IWQyYE28pQJlTHmFV39cx+ZGzD4f6beJLnleh7E65zHJ2EjT1aGKdnhT7oTD+kDKRTp6MEwnZYdST4wRq/CjhaIQbv6G2xk0Tpi+fj8aeZ2O7UfVs2OgZJ3iw3tkql5zmoquOhGK94TMSGhwCGuV0ormL+lcPkCkS0L+Ah6d4pbsFCv7op2Hsob9k373AXVWru+Ashf85Cfa+QH0ZadPDHftgFk6B9LJxDYb1h06dujIQKaPz+LhJSwGz7I8i0RLKN9bHpLD2iLAQ8hS01rly0z6zDqtb+okuRFuqlTTUohYEJnglvrehiaT0fzvOjY/wtZTojsy2bVzMp6oYzLiHdOWnYTx2C16yDqRNxSJP//WTOthunKmjbWyt2mBMa1a/49Cd0SLxxS4WR5BWKHL4sHnTXT9DOclNy1cpojTPSZmuW9INazf++6fDKQ1+IWPRuvnfWUCEUOV7dtHR5qy705NWj4BirVXSMs8MsPaG3RsYZj8v+ORp8Mvg/Ub1j06NjPSyUTLZjiOjh06MpCpwbKOGQ3lkXUo3V7G0WWOtT2kzF8V/Uj7+Ij1Pkxa/WMp5XECs76lk+TGEG5AYHJaOMDtkrW0dYGOzg/D+ZMQkPlpZUz7yZzHK1xTRZzFvseBUII2j2bb0xFOnIqx7B04Mdp36thDAJ5+m/FXUpV2lGklPtGQdvZjOteo6vX7RGCwPiGzud7fqKA7JZbJnZkgkPtBhv6rGvJmnrghgmYdcCVC4TxnBFxUGg5P/P124e/iBGGsOQXC6z9fEGW279axmfGGkAnucMR+/J1TnfeHovHHfWVyJ6r7lbHqFJ2rOBirzpAx8MjEw81I/PVR+Q7TPRRJpgk1TWeOjTmv+fLFMgF/P316Teu7dJL8SCMTZP/X3GQCwtbZWJq83j8BcYziS9LPK0dHrIWhyjV9IhMGeUGMdZOOPkQw7Vn9QownR1e29p5U2TzwrTSGc7trteiicdHY/AMdw8Xr+4RkHETX/L424K4eNzoMe5tvbl2//CEdmxkumeCiHYVkQtmYcF4oMe2/+BOM5yKVr/qIzlE8OA5SliYTyFBiWL+eWOhbkIq1TLGW82Us2Xamp1WNFHgrwcNgMj2bl0yE6SzzzjulfuoWt+hTwa10Eo1pqAP0dKgThxSG8ws1A2sYEoUVU4GiiYt1rHtfLRJPiEKjUaFIYscY7v54YCeEILpT0ZZtqnzFu3WsUjM2jUO5r7odxkAz5Fv7HM1kghxApGfKInZCyOQpIyzWKKO5RecoHulkoszCdquOzY9iyWTGPy0bSj6ZZLIdvN7OhSGSqcSM/wzt2y91C5kwiYctX2fp8sLq/8XfZaTuGdafVTTHOeiwIAwrVLn2/+gWeELEQrZf2SlQClbiqBDcak0BbwGb9n2+UGQBbS3XsRAYNxOcrQPIZKzJ/X+SjmYyQU5Y2zw1cY59Asqu82XLdvIyZ7SINUcqhExULk0mktO0Hv3grAK3gYsk0/ga5+NlFZCTRyb0ryzqOOfMWDFOJ8mPoVom977dS35e7kiHrT/oWBA9YfqWi4FeVdi6QsceYvB6RbUeVLAZbshDUMZjJW5y0+dFmRnH9U7EuUt+T0XYjvlbkBwQ3ur14M4iPSJ0Kikvypp5/OrwylOlLE+paa7D9hodWxhGNJnsZ2O1sPjoZyja0iPK4N8eWNOByaT4/9phxM8IcUL0lBukKqts6zmpqin3FTEPRZKJpCmLYL3sTQaorzTWsv+YQrfGiaGSiSi3wiI3sUxt9JheOanKOkvyU+dSN0aqNvC2fe6D62GD6TzmC4UWhCf+PAOamCyFJWpwG50AyeJ94yoSgwZ6VLR5VkjOG6AQTBtre0AUk6AyekSjX21Y03OedBOXrTwegt0wQNCx9qfQlrN0ivy4HO7lgN08EgMWNBfeQDK5h7aQQyTxNcjMtcIklMivvQNpM1/HyYLjpyw7qSRsbXI3g1APg6tQhe3mhZtnFOXmEWbiGj8PlVbWgE2Ftzts/3HIZOIBb6qbKdv68VnqAnk6oad/DLmL57Qf1KF7UeB5UyThXi0Sdyz+mpwST9o8FgTZI7+5V1PQsMEu2thY/PRQtPVJLRD3NoThnhmUGs2WO6j4nfepeNBbCHg+IqYa+Vim5LUNHZsfEedaKJbrV8tuztq+kGnlfszkDSeThtH07ZBYf7aVhFqXLInE/3G8d/xQKMJ0b/TEJe1HmYWcq/DhRtO6xp/NGQoiU3yhuyGFNlPOHP9ctxhSwQNpM2VdUyyZJL+zzr2Bg/rR3lFYh46tsD45YAyrNvSCtMXdJDkolCfeIQPp+dvVG0Es3QDDcnfi5IaE/TjSZD5MNOz7+91BfJYnPnH69PgZZZWtO2TWZahav1VF89xM92BYX4aA+UCZLpOD69w2YNs9F0xYNhE08nIi4Ge+mwyHiUwn1Cx/S4lhPSmzKNNQOWRGtYt7M225c/WAS66uguW/DAq5hExnt7/drPPmJxOsXtU692DcIxMfMiwEUR63bBp4164YMhFRyLVyfZc3XugDx2sv5OdebO33sjKvG/n8Vc3dJvL8t/7l4DEGSlTCSj0lcmeoZeicgU7uFYWmYoatqM4yCGOi9q/kkQSSUj6dVejUlaKQMnNQmeCGFAr3+ad7fQVjG7hr8/2V+V09eVH+upddF4+KuZE7aFtSn5rNiMNlmQhOaLH2R7TsXOWUPC0/0yny4oRK63Mlsbb++4xQJpD0xVO99W82RO2PuB6JnnQYCiETwTNDuqa6b2j36zJ2eYC19xpXN3R9zFssmYAQJ/jUIwZv7BiETPZz/vrfAzdJDCeCNPXwfuagjLmQwffzPltXEORgFbOaN5Ozk5HEIpjHle46BwrJK0CmM03nGITR3E0yHPfEmZ3gbgt3VTzlEKtl5z5fSkOJac0UYnsConWsaH8IpMx6Q+A4Y9UpEM4Lsl3PdtM15cNg0fhndZLsOJxkIqbcfmaIdXuTAL+LwsEFKxDo+8O+ksoEREJBUbKBm0Gx9idcxUMeLxRIplKz+Sv9j7ywf2t7Q7HWxDtyKWbYqoYcYJV0Hsk3NDIdE7O1jqWU5QXqXHnzZYPW6Lz5w3t7nPCn3nWNXCgOW5WqWLc6G0oMp0IeCZdGyGAsxAx/k3xnYyvanpTt12wQV9He55OJN9L50BjzclAjLVi/2N/RqQuHYV3vDhZnTVoZuj/OE3Jj+XLMMKkhbF0cql6/xScDAycBw7Z0ablxuMk0sXZ0yGy+UdY9Xn/RlhAUe2yMSlEATOe7IcrfszK05rHWbWVR6+cn8C5lqrzMtrNQvvtIOMkj/UadzFeoZeKzXGYi7rv4CLyHGYrYbXJ3M6W+cVgihHj3k+1j+e4BvhuGSCa4tu9XsZZ9fn/9AHJVrtsvTy2nYlLrWzCmFe7/ynKWjKuwLsUEtF4IZ8ZrhsU6va3aOac0mnhehO8KZikqu1W+y5UNK/c5z0S7NMRn7WVQxM14EaFRBMdBClsH1BW3n6xTF4doYp4MOH16WhuZiZztaN/WAYG7OP6sDGGKuxp/BO15py4pNw43mQQY1EjL4gGKxiOJWNsjqgaKkAe18DJQ/haXkJCBWOe2ZMhd6L+SJi+uJzi23JzZGOKDiV7fCyUTcGx45anQnef6Nz9QrztGA+sznFfld6nT+RPq+02/RRsimXiOaWLSn643qzyZye2HuI26Brr2U+7kZdmr9fnnfLRhJfo5e6JtlyLfNYNcwiGDW8dUIApU3DQb6w58d8m1UafKDq6p5FEJdIpC8g6CQa4y095xMh+pHhpCKtw8W3a82D4hKMrmZ2oQRUC9HCz68RXtD6rJqwuvkxsUJKy3YSFkhG9/sBhEJufPZ/8AljwLzqqtHV0asZ4RhfYURIiN8SnkWRxa7Yp2dy0hZSA/5ZIuL7rwiB8Via+UfKb9oIw1x4/E4C5vgTiOj1REWy3Jx3ppKdLrY0B9oVj7XrlFY9inSfu894gY1ktFk4kotz+I/r4g5UtfEWru7IMOL9EpBoJuXtiZXBLDsqX8jg/Cit6MJUUN9PdsnWIYYNo3qxlb3INXukcMPD9yO/whnSo7ypv+E0pzQPJxoFgOP69+AAPm/HRiMa9nyoCxVYmrS6rWb4aQdshWOctODdxK56BUrLlPVa75urpsQXHPA/Gmcdh6Xs3c7CrTzC08pM7+vEyh4K7RD+532zjzPt66f+kj03PfEys1HchyXY8vS4YfPQRFyXPw7OHSm04sibZOgSx+J0Rmf3w56e9VGx7DuFbzsXDJw6dm0Wc1A7Ll2deU5k/L74Vi4sRSTEZLSyrXPMqHG2U8Uut0n316Wk2+/aOiC1w2RFtf49uxRO9gHYdEJsKwfuc+vQAiCani27Kurel+ms7MMTE+77Tx4rKYMxl9ryr4wdOCII9aoFAzMU2e2mTgd6O5KusTuOmga1C9oT8/Q/UmlJHnEfViwKd+WWZqHQyxtmkYoIN7+IsHwyxb9/u46UO8xZ0Kvt+gcp3bRn7qM7i84OLel6Xl5g1bl+rYwsDNpUg8qmKpY6o/uZZJxTexXjCap4IETFPUoXEqLqldeuyYaHyKjEdqnRLSFDza/DGpj2kP5gWivDzt7epxqWLYL/L/9OrYjDi20roY7uBPxvFB1wABAig1vqLl5JDJq0ncooc7K6Syr8x70yZAgAADMcqwpodquCblZgbXzHD3hnphOECANzOwBm3Vm2TuRk00YSm+0z5AgABFgM/jeTcwGKbdzaOH/K9dDhAgQAqiLT/zj3L0xkMomnh2LLfcAwQIUAD4BqTqjQtlo0GIxHPNhGy/l0WsSTpVgAABsmLS8rEhvuU32topZ1jcbPBuxMg78VoWy/Z+gAAB8oC30XmPjofA4ta1yYZDSaztRRWJ1+pUAQIEKAh86yt37sTFa9taVtH6G3liIUCAAEVCXqbCWzpOPd98dUG+f4EaIECAkQSl/h8mmq15k1yedAAAAABJRU5ErkJggg==;" vertex="1" parent="1">
          <mxGeometry x="191" y="398" width="80.5" height="32.43" as="geometry" />
        </mxCell>
        <mxCell id="DG2oI-M4Yr5_Z9j_e3_I-24" style="edgeStyle=orthogonalEdgeStyle;rounded=1;orthogonalLoop=1;jettySize=auto;html=1;exitX=0.5;exitY=0;exitDx=0;exitDy=0;exitPerimeter=0;entryX=0.5;entryY=1;entryDx=0;entryDy=0;curved=0;" edge="1" parent="1" source="DG2oI-M4Yr5_Z9j_e3_I-1" target="DG2oI-M4Yr5_Z9j_e3_I-23">
          <mxGeometry relative="1" as="geometry" />
        </mxCell>
        <mxCell id="DG2oI-M4Yr5_Z9j_e3_I-33" value="Job Details&lt;div&gt;Job Posts&lt;/div&gt;" style="edgeLabel;html=1;align=center;verticalAlign=middle;resizable=0;points=[];" vertex="1" connectable="0" parent="DG2oI-M4Yr5_Z9j_e3_I-24">
          <mxGeometry x="0.6325" y="2" relative="1" as="geometry">
            <mxPoint x="2" y="13" as="offset" />
          </mxGeometry>
        </mxCell>
        <mxCell id="DG2oI-M4Yr5_Z9j_e3_I-3" value="&lt;font style=&quot;font-size: 11px;&quot;&gt;BIPO&lt;/font&gt;&lt;div style=&quot;font-size: 11px;&quot;&gt;&lt;font style=&quot;font-size: 11px;&quot;&gt;Payroll APAC&lt;/font&gt;&lt;/div&gt;" style="shape=cylinder3;whiteSpace=wrap;html=1;boundedLbl=1;backgroundOutline=1;size=15;fillColor=#76608a;strokeColor=#432D57;fontColor=#ffffff;" vertex="1" parent="1">
          <mxGeometry x="590" y="160" width="110" height="70" as="geometry" />
        </mxCell>
        <mxCell id="DG2oI-M4Yr5_Z9j_e3_I-46" style="edgeStyle=orthogonalEdgeStyle;rounded=1;orthogonalLoop=1;jettySize=auto;html=1;exitX=0.855;exitY=1;exitDx=0;exitDy=-4.35;exitPerimeter=0;curved=0;dashed=1;" edge="1" parent="1" source="DG2oI-M4Yr5_Z9j_e3_I-1" target="DG2oI-M4Yr5_Z9j_e3_I-45">
          <mxGeometry relative="1" as="geometry" />
        </mxCell>
        <mxCell id="DG2oI-M4Yr5_Z9j_e3_I-54" value="Payroll Report&lt;div&gt;(MANUAL)&lt;/div&gt;" style="edgeLabel;html=1;align=center;verticalAlign=middle;resizable=0;points=[];" vertex="1" connectable="0" parent="DG2oI-M4Yr5_Z9j_e3_I-46">
          <mxGeometry x="0.2735" y="3" relative="1" as="geometry">
            <mxPoint as="offset" />
          </mxGeometry>
        </mxCell>
        <mxCell id="DG2oI-M4Yr5_Z9j_e3_I-4" value="BIPO&lt;div&gt;Payroll India&lt;/div&gt;" style="shape=cylinder3;whiteSpace=wrap;html=1;boundedLbl=1;backgroundOutline=1;size=15;fillColor=#76608a;strokeColor=#432D57;fontColor=#ffffff;" vertex="1" parent="1">
          <mxGeometry x="600" y="450" width="110" height="70" as="geometry" />
        </mxCell>
        <mxCell id="DG2oI-M4Yr5_Z9j_e3_I-59" style="edgeStyle=orthogonalEdgeStyle;rounded=1;orthogonalLoop=1;jettySize=auto;html=1;exitX=0;exitY=0;exitDx=0;exitDy=30;exitPerimeter=0;entryX=1;entryY=0.5;entryDx=0;entryDy=0;curved=0;startArrow=classic;startFill=1;" edge="1" parent="1" source="DG2oI-M4Yr5_Z9j_e3_I-1" target="DG2oI-M4Yr5_Z9j_e3_I-58">
          <mxGeometry relative="1" as="geometry" />
        </mxCell>
        <mxCell id="DG2oI-M4Yr5_Z9j_e3_I-5" value="&lt;font style=&quot;font-size: 11px;&quot;&gt;BIPO&lt;/font&gt;&lt;div style=&quot;font-size: 11px;&quot;&gt;&lt;font style=&quot;font-size: 11px;&quot;&gt;Payroll APAC&lt;/font&gt;&lt;/div&gt;" style="shape=cylinder3;whiteSpace=wrap;html=1;boundedLbl=1;backgroundOutline=1;size=15;fillColor=#76608a;strokeColor=#432D57;fontColor=#ffffff;" vertex="1" parent="1">
          <mxGeometry x="590" y="250" width="110" height="70" as="geometry" />
        </mxCell>
        <mxCell id="DG2oI-M4Yr5_Z9j_e3_I-60" style="edgeStyle=orthogonalEdgeStyle;rounded=1;orthogonalLoop=1;jettySize=auto;html=1;exitX=0.145;exitY=0;exitDx=0;exitDy=4.35;exitPerimeter=0;entryX=1;entryY=0.5;entryDx=0;entryDy=0;curved=0;startArrow=classic;startFill=1;" edge="1" parent="1" source="DG2oI-M4Yr5_Z9j_e3_I-1" target="DG2oI-M4Yr5_Z9j_e3_I-56">
          <mxGeometry relative="1" as="geometry">
            <Array as="points">
              <mxPoint x="160" y="364" />
              <mxPoint x="130" y="364" />
              <mxPoint x="130" y="313" />
            </Array>
          </mxGeometry>
        </mxCell>
        <mxCell id="DG2oI-M4Yr5_Z9j_e3_I-6" value="&lt;font style=&quot;font-size: 11px;&quot;&gt;BIPO&lt;/font&gt;&lt;div style=&quot;font-size: 11px;&quot;&gt;&lt;font style=&quot;font-size: 11px;&quot;&gt;Payroll APAC&lt;/font&gt;&lt;/div&gt;" style="shape=cylinder3;whiteSpace=wrap;html=1;boundedLbl=1;backgroundOutline=1;size=15;fillColor=#76608a;strokeColor=#432D57;fontColor=#ffffff;" vertex="1" parent="1">
          <mxGeometry x="590" y="340" width="110" height="70" as="geometry" />
        </mxCell>
        <mxCell id="DG2oI-M4Yr5_Z9j_e3_I-1" value="&lt;div&gt;&lt;br&gt;&lt;/div&gt;&lt;div&gt;&lt;br&gt;&lt;/div&gt;&lt;div&gt;&lt;span style=&quot;background-color: initial;&quot;&gt;HCM, Recruiting&lt;/span&gt;&lt;br&gt;&lt;/div&gt;" style="shape=cylinder3;whiteSpace=wrap;html=1;boundedLbl=1;backgroundOutline=1;size=15;fillColor=#ffe6cc;strokeColor=#FFFFFF;" vertex="1" parent="1">
          <mxGeometry x="160" y="360" width="140" height="90" as="geometry" />
        </mxCell>
        <mxCell id="DG2oI-M4Yr5_Z9j_e3_I-7" style="edgeStyle=orthogonalEdgeStyle;rounded=1;orthogonalLoop=1;jettySize=auto;html=1;exitX=1;exitY=0;exitDx=0;exitDy=30;exitPerimeter=0;entryX=0;entryY=0;entryDx=0;entryDy=45;entryPerimeter=0;curved=0;" edge="1" parent="1" source="DG2oI-M4Yr5_Z9j_e3_I-1" target="DG2oI-M4Yr5_Z9j_e3_I-3">
          <mxGeometry relative="1" as="geometry">
            <Array as="points">
              <mxPoint x="440" y="390" />
              <mxPoint x="440" y="205" />
            </Array>
          </mxGeometry>
        </mxCell>
        <mxCell id="DG2oI-M4Yr5_Z9j_e3_I-19" value="Worker Data&lt;div&gt;HR Process data&lt;/div&gt;" style="edgeLabel;html=1;align=center;verticalAlign=middle;resizable=0;points=[];fontFamily=Helvetica;fontSize=11;fontColor=default;labelBackgroundColor=#E6FFCC;fillColor=none;gradientColor=none;" vertex="1" connectable="0" parent="DG2oI-M4Yr5_Z9j_e3_I-7">
          <mxGeometry x="0.2741" relative="1" as="geometry">
            <mxPoint x="50" y="-17" as="offset" />
          </mxGeometry>
        </mxCell>
        <mxCell id="DG2oI-M4Yr5_Z9j_e3_I-8" style="edgeStyle=orthogonalEdgeStyle;rounded=1;orthogonalLoop=1;jettySize=auto;html=1;exitX=1;exitY=0.5;exitDx=0;exitDy=0;exitPerimeter=0;entryX=0;entryY=0.5;entryDx=0;entryDy=0;entryPerimeter=0;curved=0;" edge="1" parent="1" source="DG2oI-M4Yr5_Z9j_e3_I-1" target="DG2oI-M4Yr5_Z9j_e3_I-5">
          <mxGeometry relative="1" as="geometry">
            <Array as="points">
              <mxPoint x="450" y="405" />
              <mxPoint x="450" y="285" />
            </Array>
          </mxGeometry>
        </mxCell>
        <mxCell id="DG2oI-M4Yr5_Z9j_e3_I-20" value="Worker Data&lt;div&gt;HR Process data&lt;/div&gt;" style="edgeLabel;html=1;align=center;verticalAlign=middle;resizable=0;points=[];fontFamily=Helvetica;fontSize=11;fontColor=default;labelBackgroundColor=#E6FFCC;fillColor=none;gradientColor=none;" vertex="1" connectable="0" parent="DG2oI-M4Yr5_Z9j_e3_I-8">
          <mxGeometry x="0.482" y="-2" relative="1" as="geometry">
            <mxPoint x="26" y="-2" as="offset" />
          </mxGeometry>
        </mxCell>
        <mxCell id="DG2oI-M4Yr5_Z9j_e3_I-9" style="edgeStyle=orthogonalEdgeStyle;rounded=1;orthogonalLoop=1;jettySize=auto;html=1;exitX=1;exitY=0;exitDx=0;exitDy=60;exitPerimeter=0;entryX=0;entryY=0;entryDx=0;entryDy=45;entryPerimeter=0;curved=0;" edge="1" parent="1" source="DG2oI-M4Yr5_Z9j_e3_I-1" target="DG2oI-M4Yr5_Z9j_e3_I-6">
          <mxGeometry relative="1" as="geometry">
            <Array as="points">
              <mxPoint x="460" y="420" />
              <mxPoint x="460" y="385" />
            </Array>
          </mxGeometry>
        </mxCell>
        <mxCell id="DG2oI-M4Yr5_Z9j_e3_I-21" value="Worker Data&lt;div&gt;HR Process data&lt;/div&gt;" style="edgeLabel;html=1;align=center;verticalAlign=middle;resizable=0;points=[];fontFamily=Helvetica;fontSize=11;fontColor=default;labelBackgroundColor=#E6FFCC;fillColor=none;gradientColor=none;" vertex="1" connectable="0" parent="DG2oI-M4Yr5_Z9j_e3_I-9">
          <mxGeometry x="0.5495" y="-1" relative="1" as="geometry">
            <mxPoint as="offset" />
          </mxGeometry>
        </mxCell>
        <mxCell id="DG2oI-M4Yr5_Z9j_e3_I-10" style="edgeStyle=orthogonalEdgeStyle;rounded=1;orthogonalLoop=1;jettySize=auto;html=1;exitX=1;exitY=1;exitDx=0;exitDy=-15;exitPerimeter=0;entryX=0;entryY=0;entryDx=0;entryDy=45;entryPerimeter=0;curved=0;" edge="1" parent="1" source="DG2oI-M4Yr5_Z9j_e3_I-1" target="DG2oI-M4Yr5_Z9j_e3_I-4">
          <mxGeometry relative="1" as="geometry">
            <Array as="points">
              <mxPoint x="450" y="435" />
              <mxPoint x="450" y="495" />
            </Array>
          </mxGeometry>
        </mxCell>
        <mxCell id="DG2oI-M4Yr5_Z9j_e3_I-22" value="Worker Data&lt;div&gt;HR Process data&lt;/div&gt;" style="edgeLabel;html=1;align=center;verticalAlign=middle;resizable=0;points=[];labelBackgroundColor=#E6FFCC;" vertex="1" connectable="0" parent="DG2oI-M4Yr5_Z9j_e3_I-10">
          <mxGeometry x="0.5044" y="-1" relative="1" as="geometry">
            <mxPoint as="offset" />
          </mxGeometry>
        </mxCell>
        <mxCell id="DG2oI-M4Yr5_Z9j_e3_I-15" value="" style="shape=image;verticalLabelPosition=bottom;labelBackgroundColor=default;verticalAlign=top;aspect=fixed;imageAspect=0;image=https://www.edigitalagency.com.au/wp-content/uploads/Linkedin-logo-png.png;" vertex="1" parent="1">
          <mxGeometry x="483.87" y="120" width="116.13" height="30" as="geometry" />
        </mxCell>
        <mxCell id="DG2oI-M4Yr5_Z9j_e3_I-29" style="edgeStyle=orthogonalEdgeStyle;rounded=1;orthogonalLoop=1;jettySize=auto;html=1;exitX=0;exitY=0.5;exitDx=0;exitDy=0;entryX=1;entryY=0.25;entryDx=0;entryDy=0;curved=0;" edge="1" parent="1" source="DG2oI-M4Yr5_Z9j_e3_I-23" target="DG2oI-M4Yr5_Z9j_e3_I-28">
          <mxGeometry relative="1" as="geometry" />
        </mxCell>
        <mxCell id="DG2oI-M4Yr5_Z9j_e3_I-30" style="edgeStyle=orthogonalEdgeStyle;rounded=1;orthogonalLoop=1;jettySize=auto;html=1;exitX=0;exitY=0.25;exitDx=0;exitDy=0;entryX=1;entryY=0.25;entryDx=0;entryDy=0;curved=0;" edge="1" parent="1" source="DG2oI-M4Yr5_Z9j_e3_I-23" target="DG2oI-M4Yr5_Z9j_e3_I-27">
          <mxGeometry relative="1" as="geometry" />
        </mxCell>
        <mxCell id="DG2oI-M4Yr5_Z9j_e3_I-31" style="edgeStyle=orthogonalEdgeStyle;rounded=1;orthogonalLoop=1;jettySize=auto;html=1;exitX=0.25;exitY=0;exitDx=0;exitDy=0;entryX=0.75;entryY=1;entryDx=0;entryDy=0;curved=0;" edge="1" parent="1" source="DG2oI-M4Yr5_Z9j_e3_I-23" target="DG2oI-M4Yr5_Z9j_e3_I-25">
          <mxGeometry relative="1" as="geometry" />
        </mxCell>
        <mxCell id="DG2oI-M4Yr5_Z9j_e3_I-32" style="edgeStyle=orthogonalEdgeStyle;rounded=1;orthogonalLoop=1;jettySize=auto;html=1;exitX=0.75;exitY=0;exitDx=0;exitDy=0;entryX=0.5;entryY=1;entryDx=0;entryDy=0;curved=0;" edge="1" parent="1" source="DG2oI-M4Yr5_Z9j_e3_I-23" target="DG2oI-M4Yr5_Z9j_e3_I-26">
          <mxGeometry relative="1" as="geometry" />
        </mxCell>
        <mxCell id="DG2oI-M4Yr5_Z9j_e3_I-23" value="" style="shape=image;verticalLabelPosition=bottom;labelBackgroundColor=default;verticalAlign=top;aspect=fixed;imageAspect=0;image=https://www.solutions-ressources-humaines.com/logo/9a7a2e4d0c20a95bb_logo_rgb.png;" vertex="1" parent="1">
          <mxGeometry x="170" y="189.99999999999994" width="90" height="53.18" as="geometry" />
        </mxCell>
        <mxCell id="DG2oI-M4Yr5_Z9j_e3_I-25" value="Job Board" style="rounded=1;whiteSpace=wrap;html=1;fillColor=#fff2cc;strokeColor=#d6b656;" vertex="1" parent="1">
          <mxGeometry x="61.5" y="100" width="120" height="40" as="geometry" />
        </mxCell>
        <mxCell id="DG2oI-M4Yr5_Z9j_e3_I-26" value="Job Board" style="rounded=1;whiteSpace=wrap;html=1;fillColor=#fff2cc;strokeColor=#d6b656;" vertex="1" parent="1">
          <mxGeometry x="181.5" y="115" width="120" height="40" as="geometry" />
        </mxCell>
        <mxCell id="DG2oI-M4Yr5_Z9j_e3_I-27" value="Job Board" style="rounded=1;whiteSpace=wrap;html=1;fillColor=#fff2cc;strokeColor=#d6b656;" vertex="1" parent="1">
          <mxGeometry x="10" y="155" width="120" height="40" as="geometry" />
        </mxCell>
        <mxCell id="DG2oI-M4Yr5_Z9j_e3_I-28" value="Job Board" style="rounded=1;whiteSpace=wrap;html=1;fillColor=#fff2cc;strokeColor=#d6b656;" vertex="1" parent="1">
          <mxGeometry y="220" width="120" height="40" as="geometry" />
        </mxCell>
        <mxCell id="DG2oI-M4Yr5_Z9j_e3_I-34" value="&lt;font style=&quot;font-size: 11px;&quot; color=&quot;#ffffff&quot;&gt;EMEA&lt;/font&gt;&lt;div style=&quot;font-size: 11px;&quot;&gt;&lt;font style=&quot;font-size: 11px;&quot; color=&quot;#ffffff&quot;&gt;Local Payroll Systems&lt;/font&gt;&lt;/div&gt;" style="shape=cylinder3;whiteSpace=wrap;html=1;boundedLbl=1;backgroundOutline=1;size=15;fillColor=#858F96;strokeColor=#FFFFFF;" vertex="1" parent="1">
          <mxGeometry x="373" y="660" width="105" height="80" as="geometry" />
        </mxCell>
        <mxCell id="DG2oI-M4Yr5_Z9j_e3_I-35" value="&lt;font color=&quot;#ffffff&quot;&gt;LATAM&lt;/font&gt;&lt;div&gt;&lt;font color=&quot;#ffffff&quot;&gt;Local Payroll Systems&lt;/font&gt;&lt;/div&gt;" style="shape=cylinder3;whiteSpace=wrap;html=1;boundedLbl=1;backgroundOutline=1;size=15;fillColor=#858F96;strokeColor=#FFFFFF;align=center;verticalAlign=middle;fontFamily=Helvetica;fontSize=12;fontColor=default;" vertex="1" parent="1">
          <mxGeometry x="230" y="660" width="105.5" height="80" as="geometry" />
        </mxCell>
        <mxCell id="DG2oI-M4Yr5_Z9j_e3_I-41" value="Local&amp;nbsp;" style="outlineConnect=0;dashed=0;verticalLabelPosition=bottom;verticalAlign=top;align=center;html=1;shape=mxgraph.aws3.user;fillColor=#a20025;strokeColor=#6F0000;fontColor=#ffffff;" vertex="1" parent="1">
          <mxGeometry x="301.5" y="550" width="34" height="43" as="geometry" />
        </mxCell>
        <mxCell id="DG2oI-M4Yr5_Z9j_e3_I-42" value="HR / Payroll Partner" style="text;html=1;align=center;verticalAlign=middle;whiteSpace=wrap;rounded=0;" vertex="1" parent="1">
          <mxGeometry x="285.5" y="593" width="126" height="17" as="geometry" />
        </mxCell>
        <mxCell id="DG2oI-M4Yr5_Z9j_e3_I-43" style="edgeStyle=orthogonalEdgeStyle;rounded=1;orthogonalLoop=1;jettySize=auto;html=1;exitX=0.5;exitY=1;exitDx=0;exitDy=0;exitPerimeter=0;entryX=0.25;entryY=0.1;entryDx=0;entryDy=0;entryPerimeter=0;curved=0;dashed=1;" edge="1" parent="1" source="DG2oI-M4Yr5_Z9j_e3_I-1" target="DG2oI-M4Yr5_Z9j_e3_I-41">
          <mxGeometry relative="1" as="geometry" />
        </mxCell>
        <mxCell id="DG2oI-M4Yr5_Z9j_e3_I-53" value="Payroll Report&lt;div&gt;(MANUAL)&lt;/div&gt;" style="edgeLabel;html=1;align=center;verticalAlign=middle;resizable=0;points=[];" vertex="1" connectable="0" parent="DG2oI-M4Yr5_Z9j_e3_I-43">
          <mxGeometry x="-0.3098" y="2" relative="1" as="geometry">
            <mxPoint as="offset" />
          </mxGeometry>
        </mxCell>
        <mxCell id="DG2oI-M4Yr5_Z9j_e3_I-45" value="Local&amp;nbsp;" style="outlineConnect=0;dashed=0;verticalLabelPosition=bottom;verticalAlign=top;align=center;html=1;shape=mxgraph.aws3.user;fillColor=#a20025;strokeColor=#6F0000;fontColor=#ffffff;" vertex="1" parent="1">
          <mxGeometry x="350" y="550" width="34" height="43" as="geometry" />
        </mxCell>
        <mxCell id="DG2oI-M4Yr5_Z9j_e3_I-47" style="edgeStyle=orthogonalEdgeStyle;rounded=1;orthogonalLoop=1;jettySize=auto;html=1;exitX=0.25;exitY=1;exitDx=0;exitDy=0;entryX=0.5;entryY=0;entryDx=0;entryDy=0;entryPerimeter=0;curved=0;" edge="1" parent="1" source="DG2oI-M4Yr5_Z9j_e3_I-42" target="DG2oI-M4Yr5_Z9j_e3_I-35">
          <mxGeometry relative="1" as="geometry" />
        </mxCell>
        <mxCell id="DG2oI-M4Yr5_Z9j_e3_I-56" value="" style="shape=image;verticalLabelPosition=bottom;labelBackgroundColor=default;verticalAlign=top;aspect=fixed;imageAspect=0;image=https://res.cloudinary.com/apideck/image/upload/v1612965027/marketplaces/cjkplqbxrmic30998x1tqyp7m/listings/zomzhnitwk9nqrfayrpf.png;" vertex="1" parent="1">
          <mxGeometry x="30" y="295" width="35" height="35" as="geometry" />
        </mxCell>
        <mxCell id="DG2oI-M4Yr5_Z9j_e3_I-58" value="" style="shape=image;verticalLabelPosition=bottom;labelBackgroundColor=default;verticalAlign=top;aspect=fixed;imageAspect=0;image=https://logodownload.org/wp-content/uploads/2021/08/microsoft-teams-logo-0.png;" vertex="1" parent="1">
          <mxGeometry x="20" y="330" width="55" height="55" as="geometry" />
        </mxCell>
        <mxCell id="DG2oI-M4Yr5_Z9j_e3_I-61" value="" style="ellipse;whiteSpace=wrap;html=1;aspect=fixed;fillColor=none;strokeColor=none;" vertex="1" parent="1">
          <mxGeometry x="-80" y="317.5" width="80" height="80" as="geometry" />
        </mxCell>
        <mxCell id="DG2oI-M4Yr5_Z9j_e3_I-78" style="edgeStyle=orthogonalEdgeStyle;rounded=0;orthogonalLoop=1;jettySize=auto;html=1;exitX=1;exitY=0;exitDx=0;exitDy=60;exitPerimeter=0;strokeWidth=2;strokeColor=#1A1A1A;" edge="1" parent="1" source="DG2oI-M4Yr5_Z9j_e3_I-62">
          <mxGeometry relative="1" as="geometry">
            <mxPoint x="220" y="940" as="targetPoint" />
          </mxGeometry>
        </mxCell>
        <mxCell id="DG2oI-M4Yr5_Z9j_e3_I-62" value="" style="shape=cylinder3;whiteSpace=wrap;html=1;boundedLbl=1;backgroundOutline=1;size=15;fillColor=#ffe6cc;strokeColor=#FFFFFF;" vertex="1" parent="1">
          <mxGeometry x="-80" y="880" width="147.75" height="100" as="geometry" />
        </mxCell>
        <mxCell id="DG2oI-M4Yr5_Z9j_e3_I-63" value="" style="shape=image;verticalLabelPosition=bottom;labelBackgroundColor=default;verticalAlign=top;aspect=fixed;imageAspect=0;image=data:image/png,iVBORw0KGgoAAAANSUhEUgAAANMAAABVCAYAAADT7tEcAAAAAXNSR0IArs4c6QAAAARnQU1BAACxjwv8YQUAAAAJcEhZcwAAFxEAABcRAcom8z8AACAVSURBVHhe7V0HdFzVmb4jWbbBGEJJYnYTSNndAAmQShpZSCPZQLLZTZxCc2Jr3psZNTdCnKbkUGzJFnLBYGOCg40tvfdmVFwxgdiwCyEcWkJJII26xoAdSZaLbEuz3/e/+55Go6myjGXzvnPumdHc/t//u/9/y3tSAUY2Xq5Vp+ycqy7MFfYgdM1T5ydr1VidLUCANyf6VqhxW+eqcR2z1Xt21qub9zaqFV31buisV08lb1TJnGGxSvYtUMmuueoBL1/vfLViZ52ajTJPZNl9CLq6AAGOLnTXqQ/33ai+DMvy830L1FYQYSuItF3IcVN/6AVJkCZv6J6H9AtT8t7sE+wVxG/d2yDlV7DOjnr1Xt2MAAGOTCSXqlNgaebsvUHdBuvRKRYFBNjXqJL7EfjZnYEoQw0kWGrZQjbUibi/7p+vlnTWqauSywPXMMARgleuU29PLlMXwhLduH+hejm5yLUcINQg5T/UwSMqiCSWS4i2QD3fVad+gr8vxPrsWN3sAAFGFuBizQJpHqPi0l2jEtNapCt5MWFPg0sCht34nilNoWEX2nIAbWLbSPADC9TdXfOUoZsfIMDhRXe9mnBgkZoE4vxJ3CoEKm4+940ko3Iz9MBqeeue9CDl1KvXkWcHrVumNHTlSDqvvLx160/m6wFJO+eqp/tuUpf88So1XncrQIA3DslaVYJ10A/33KD+QKXkbE9FTlfc1EACcZOAhKOFIAH4iXK2QaGvxeeP00PHHPWdXXPVx7bPUZ/C+ut7u+cNTgOLuBChh9aLZYrlQR35NjOQR6ydpEcf9s1Xm/FbRHcxQIBDD8zsk3oXqie5HiI5MimqF0ggKrhYEKSHsj4JAj2OdUvjjtnq3L6F6tyOG9R7dNFDBso9q6dBncsyO+uUdaARddSrP0u9sHpisXKQndaKO4vcvEB4fOds9TlddIAAww+sL87ouxEWZK7qpeJlU04osWw4eBYCf++FKzcH+WYlbVWqizvk4JkT2nMtrM+NXnsYaI3QlsHtRoDl83YAd8DS/RiTxVt1cQECHDzg0o3qu1mdh7XLX5PLsisjg8zwsAZ7G9RepP8fWJ7P4PMcXdRhA11FWKevod1/EEvpEiZjYN9kfXYr/mYfGtWZupgAAYaO5FJVBsti9cJFowuUSfkYfEuEdL2L1WqQ6mJdxIgD114HFqkNJJS3dsvUJwZv9w+kmqOzBwhQPHZco07vrldNtDTZtqXp6jEei/fdIN3dexrVhTr7iMaTtWp032J1EazQ70GmPq6rMvWPQawUiAfrVvf6teqfdREBAhSGjjplQMn2cVbOtjbyZm0o5eo9N6iLkC3k5j5ywDUcrM7lsFTruQ7kjmCmvnIy4WZLT6Pa0TFHfUlnDxAgN7pApH2LVK8cuqYplb+egDVC3DN0mXS2Ixr2RFUKIv0MfdxBK5RpAuFvvQvlFsXOHXXqEp01QIDMIJFobXiYmb7JwL97QTAs5PfD5bmj6yjc6UIfz8JksYVWiJNGav9FBvWuNd7bqHaBXIGFCpAZUI7yfQtVbyZXR3bpeMeuQe3orFNf0VmOSrzQoI4BqSJw7fq4oZIuC04qB0Co/QtV1/bZI3ejJcBhAmZcU2bjDBaJ6wW5UbBQPfSPOvVZneWoB9ZSl4Iwz2c6U/MsFNaKu4M1VAAfUJTJPQtUX7pFIqnkTAbKBMW6bsccdYLO8qZB13XqjN3z1G3eLYp0+dBCwZp3dgYWKoBnkTKtkTwiwTJdrZO/aYEJZwk3XQYRyrNQDWrv9qPc/Q2QA7RI+7JZJO7YgUhQlh/r5G92hCCLX2YiFINs2ixQXUf7ejJABtAt4TZvJovEXay+wCJlxO5GtTirhYI88X3v3jr1rzp5gKMdyYmqFIP+2/SdqsAiFQbI6pZMayjZ8XRlukwnDXA0A+uj4/c0qjtkhypFERhIpD4eWDaoWTp5gAxIwuWD9V6ciVD8uxeyxeccbrHrLAGORnTUq6rkLYO3ekksbkR0zVM/0kkD5EFnvVqW0bpz4waT0vbr1Sd10gBHG7oa1Zkg0YuDNhzg7yeXiCI066QBCsDWGWoc1pXynr/0dSfvLe5qUPfvvE69XScPcLQAVmcMSPMgF8+pg87AA9me+erVzgb1CZ08QIGATL8B2e3jPcZ0QtEDwOctOmmAowFyM3quqty/QB1I9/G5cwe35JUdc9T5OnmAIgHX+dLeBaqLN0VSZcs1KLyAzs656j900gBHOjoXqZM767LMnstUsnOOmq6TBhgiYKF+pS2RHyhrrqm66tRzOlmAIx0g0kKegaRvOuwDuXY3qk3dN6hTddIAQ8SeevVeWKLfc8JKlTE9gQM3qh5YrwqdNMCRCr6xZ898tT19kOmC0C15eY46TScNcJDYWac+K++WSJm0aJ34yD/c6Ue3zlVv00kDHGng+xs669VmDjB37FLJxN8wW87n49s6eYCDRN+tajzWn+08f0p1p2W3FL+BbHU6aYAjDbvmqq9yG5yvr0ol0v4F4vK92tGg/kUnDTBM2DlbfQFeQE/6g4UcB5Cqo2P2wb8jMMBhANZK9/IMJHVQeaDI+3hwRb6okwUYZkDuNek3TOSqEb2BOjVXJwtwpKBrjjp/d6PaLsRJGVRuRGBA730jXwb5ZkP3tepUrEef4QZPquwPQPaYzB7ZOT84yD1iwPeAd85T1+hbDf5gypWhxWp/d2Nw7nGosbNeTe+7WfWmWidZO92skljHXsn7fTppgJGMzkb1vl3zVBd37LyBZJCdprnqzuB/wR56wM07DkR6hv/cLXUMxFrVq7+9GZ9aPiKxvUGdLRsPKSfyPO/YO1/1ds5RM3Wyw4va2hJlPFzmh4n2yHM7a5Mlo6PWdFW1dkmoev2ScZXOd6XdBQIWKMGHBlOtkzw/Vq92dtSqk3SyACMZO+rVOUkMYiqZ+GpjDO7+voYRMohh5yJVteE5ZdjPqcq1z4VMp/2sWntkbdMbViQ0/e6kmnpXUk37dTJUua5XheNf0LF5satBnccbEKnjoHf19vCfCuhkAUYyOOt1zlVtXDNxMCXcJGRaNGI2HsLxb6hp9yRVRXtS1WxKlprOC+f+aO3IevWwaf2YJFKm44aaO5Oq3PovHZsXfXVqPIjTnj4OWMfOh6sdnO8dKeAt8T2NasWBBerB3kXqwT0NI2xL1oh/HZbJVdKKNcnSiP3sh65q+ycdOzJgWFerqZv6yVS1PqnC1td0bEEgabB2vZ3jcADjsOsGNS+ZDDYfAgwn3iRkChDg0CMgU4AAw4SATAECDBMCMgUIMEwIyBQgwDAhIFOAAMOEgExHMWo3j1Ixe4KKrZugZm6eoKYsK+6mAPNJQBkzfzdB1daO0jF5cfLkW8dLnQyTlr9F/1wcjKVlUq/0ISXMRJumWAd/64Fls30ZcKKx9ASJ8+tE2gvy9P9gyHT5irf58p6yemg3sKust/rjJUF/T8Vwk2lymzvOfp263intxffhkqXH+mVR3kPBNxuOcXVm3YRjUc7pk5YP053NWOsHVSTRrSLxbhVt7Vaxtr8pw/mojs2NsD0DCtENgbuhci3KaWlFeXkfU56AQS2JtTyqYu2ok/W2P1twvcDba5reVRJbcwXa3aYqUK/XBi9EW7pR3t9U9Z3fV5euKv4KS8w+Thn2Lapyndsv05mtqhaM0bFqVHj1x0sr2p4QmXl1Sv8TbTn7P1QyhZsuwti8ljJWu1TEmaxj84Pkq9loKtPehjHqb7OJsvhZs/EqZa5y3xVuNP1wWMgUsT6nqjZegTofkXH260RgPwy7E2NXM6rc+YzOkRvlLf8WirU/4JfFsTGabynqfqMQuW2LqzPx7pLKNd1l0eYrdexBwmw5D41KooIkFDCpZmxOhkznNh2bHdOsYyCM10XQ0VY3xBB4nyvc/DGdKjNoDU2nXa6p6LyhaXcnQxHrWp0iN6JNnyqpbH82xLoq17rt9trgB/zGPvFaTOW6h6GAP9S5C0O45b0YNCg8AuVjOj3yO/odiiSWo/ztbt9T6mZ9TGtY2d9oOhQyTWn+CvrZKWWzvmrkj7b0oZ7LdYqcGAt5QXEeU9N/445RJnlNvwefib+LsplWWMbxYMhkWN9Ge3tE/pRhxjFCQD2hWBsnvxt0zuzgmETbnnX1huMLvQHpx8Scwh6LJ+kMZ4mCrrntQZh5H8bLLk43ssJo+aQMjic4KFBJLP738TXW+3SKjBgVtWeFKtb2QkmTbkgguAqiws40lUxmvzrCi50miEghs85K5DHjTwpBcwFllpj2lVDmf8gAMy/rZfsp4NQgBEC7TNtVhmr8Vm79QpeUH+XWuyHk/b7QzfhOKNkX0cc7RCnZT4mjUuCTMpDZPL5AJotsKJZM5c1fQh27ZdIw0BfWW7l2J2bkr+oUOXGMaZ1XUgGLJnUiP9vJNldvHCwvfhrO7xCWS32eThRJplKj+Voofa+ML9ucqT6ZiPA7y/cmPcP+ZV4rU25NF5Jy3JkX5YZM60EdmxvGr09AHZ1+vfysXPcqxmyY/h1ORcvJaFibqpLZ12+g3G7OBdNaqKa6lyFDUDoo+R5RXg626WzVqbLDsJ7rJ9NalOE8rWOyY8rqL4J4+6QODhIHgcphWFfBpYDLlxJoXdkPxlOJqPAcxHKsBwpBKpnYRhk81oXfWI4rK+222LtCbNNVmOXCzk91CZlROJlCykh8Ge4ILFIKkWKte1BHYQ85VqDcCMiROllGWg6EDGs7fq8YIC/DvkHkSSWnRWZ9Xp5iyGTal4mye0SSSc15HfoyJbU+jPcv4AF1a31xx4nW0LAW65IyYyIm4rC1S9rKfEKI9dsKIkQ0/h6OlU8mTrCGdZ+OHSYY8Z/03xJGpzh4YbgGWXD8NOskWIc1ImSZwex7Q0bzXBk0CBGD9fJpP1yXfZ1CN4huknQK9SHPmIg1X8dmBtsTbXnFtWIkh8wq+1S5/T2dYhBC0dbZWAv0EwoDi9+eE1cmH9LJJANHC5TgIwlbSqLxb7v+tz3hxGjTO8vY/khipSy2c6FQMk1cekLItGFRIGOZOKCcFWs71ORVX9cp8sO0E+LSeO2XWdzZgnZmXtNFWqKQEV2u/jwMhZIp0vwBktUnEolS0b4dZVyoUwxEVeIdsIJ3Sfmsh/mira+KO5cFpxpLjy0xrM39lhP10FPg+j0fTHsl6uqTfNSJ2JpekLxRxw4PxsXsGSVVa/tcpWOnIATDXp3NXSmNNH8pxFmfaTnzhO1NYh04Y6MMun+jYk72/yphWCt8n5wzPmcZI36Gjs0Mw1rvKwbbyXpzEMlH2FqGtBAa8lHwaOOYqLPiyymbCRmRkUwyo3VgdjxOpyoehZLJSFzvKgz6yjbIhGOX69i8KINiw/3ZKgoqbaecW/tKI02X6CSZYdi/7VdUHQolk2H/yicGZVXRvksmzhw4sdo+rbSi5QW4hW4+TuqRONZPOZYJ9JoqN+gxRXCt229z7nDy4caIs1G8FWmfHtfIiuF9p99ZMfs4zIJ/dGd9No4zi7NDTGomUECVFJpWasNei4b+iM/nSP6pVPr4jTr1YBjWIn+3KCKzfY+KNp2pYwdhfFXTp0qjide1Muv22U/DKhSm1NGWe3wFhhAxs/Womjxb8elk4kxLMnPSKOKp00EohEyGVedOTK5rWQLlHh1pLu5F+Fy3pm4iUGZh6wFoVe62yw6cHlsvbyFkogsVbd3mk7eC3k3zOh2bE6GIdZs7UULGlHesrQN5P6yjB4Nra3pGnrvNybVqbbIskviATjEYfI6seuOufoPBCdx+Qo4Khh1h+1F/RnLJ9AIGffDsDWuFNdIvZTbgYFPBY87nRcmm6s5BkKVR52HOOjqXjwmx+OmlEecRn7h0DQ3r1ox1eTCdb/UrBpX6HuaJ6Nj8MKwWf0aiMDFDj4o0T9WxmZFOJvY31v443M2sLkhByECmc6dZ/Q8HRpzrxZcXItGSboKSWJvPq1p5vE5RGMoTVQPIJHIuYNPiKripJibH1DV0IWQyYE28pQJlTHmFV39cx+ZGzD4f6beJLnleh7E65zHJ2EjT1aGKdnhT7oTD+kDKRTp6MEwnZYdST4wRq/CjhaIQbv6G2xk0Tpi+fj8aeZ2O7UfVs2OgZJ3iw3tkql5zmoquOhGK94TMSGhwCGuV0ormL+lcPkCkS0L+Ah6d4pbsFCv7op2Hsob9k373AXVWru+Ashf85Cfa+QH0ZadPDHftgFk6B9LJxDYb1h06dujIQKaPz+LhJSwGz7I8i0RLKN9bHpLD2iLAQ8hS01rly0z6zDqtb+okuRFuqlTTUohYEJnglvrehiaT0fzvOjY/wtZTojsy2bVzMp6oYzLiHdOWnYTx2C16yDqRNxSJP//WTOthunKmjbWyt2mBMa1a/49Cd0SLxxS4WR5BWKHL4sHnTXT9DOclNy1cpojTPSZmuW9INazf++6fDKQ1+IWPRuvnfWUCEUOV7dtHR5qy705NWj4BirVXSMs8MsPaG3RsYZj8v+ORp8Mvg/Ub1j06NjPSyUTLZjiOjh06MpCpwbKOGQ3lkXUo3V7G0WWOtT2kzF8V/Uj7+Ij1Pkxa/WMp5XECs76lk+TGEG5AYHJaOMDtkrW0dYGOzg/D+ZMQkPlpZUz7yZzHK1xTRZzFvseBUII2j2bb0xFOnIqx7B04Mdp36thDAJ5+m/FXUpV2lGklPtGQdvZjOteo6vX7RGCwPiGzud7fqKA7JZbJnZkgkPtBhv6rGvJmnrghgmYdcCVC4TxnBFxUGg5P/P124e/iBGGsOQXC6z9fEGW279axmfGGkAnucMR+/J1TnfeHovHHfWVyJ6r7lbHqFJ2rOBirzpAx8MjEw81I/PVR+Q7TPRRJpgk1TWeOjTmv+fLFMgF/P316Teu7dJL8SCMTZP/X3GQCwtbZWJq83j8BcYziS9LPK0dHrIWhyjV9IhMGeUGMdZOOPkQw7Vn9QownR1e29p5U2TzwrTSGc7trteiicdHY/AMdw8Xr+4RkHETX/L424K4eNzoMe5tvbl2//CEdmxkumeCiHYVkQtmYcF4oMe2/+BOM5yKVr/qIzlE8OA5SliYTyFBiWL+eWOhbkIq1TLGW82Us2Xamp1WNFHgrwcNgMj2bl0yE6SzzzjulfuoWt+hTwa10Eo1pqAP0dKgThxSG8ws1A2sYEoUVU4GiiYt1rHtfLRJPiEKjUaFIYscY7v54YCeEILpT0ZZtqnzFu3WsUjM2jUO5r7odxkAz5Fv7HM1kghxApGfKInZCyOQpIyzWKKO5RecoHulkoszCdquOzY9iyWTGPy0bSj6ZZLIdvN7OhSGSqcSM/wzt2y91C5kwiYctX2fp8sLq/8XfZaTuGdafVTTHOeiwIAwrVLn2/+gWeELEQrZf2SlQClbiqBDcak0BbwGb9n2+UGQBbS3XsRAYNxOcrQPIZKzJ/X+SjmYyQU5Y2zw1cY59Asqu82XLdvIyZ7SINUcqhExULk0mktO0Hv3grAK3gYsk0/ga5+NlFZCTRyb0ryzqOOfMWDFOJ8mPoVom977dS35e7kiHrT/oWBA9YfqWi4FeVdi6QsceYvB6RbUeVLAZbshDUMZjJW5y0+dFmRnH9U7EuUt+T0XYjvlbkBwQ3ur14M4iPSJ0Kikvypp5/OrwylOlLE+paa7D9hodWxhGNJnsZ2O1sPjoZyja0iPK4N8eWNOByaT4/9phxM8IcUL0lBukKqts6zmpqin3FTEPRZKJpCmLYL3sTQaorzTWsv+YQrfGiaGSiSi3wiI3sUxt9JheOanKOkvyU+dSN0aqNvC2fe6D62GD6TzmC4UWhCf+PAOamCyFJWpwG50AyeJ94yoSgwZ6VLR5VkjOG6AQTBtre0AUk6AyekSjX21Y03OedBOXrTwegt0wQNCx9qfQlrN0ivy4HO7lgN08EgMWNBfeQDK5h7aQQyTxNcjMtcIklMivvQNpM1/HyYLjpyw7qSRsbXI3g1APg6tQhe3mhZtnFOXmEWbiGj8PlVbWgE2Ftzts/3HIZOIBb6qbKdv68VnqAnk6oad/DLmL57Qf1KF7UeB5UyThXi0Sdyz+mpwST9o8FgTZI7+5V1PQsMEu2thY/PRQtPVJLRD3NoThnhmUGs2WO6j4nfepeNBbCHg+IqYa+Vim5LUNHZsfEedaKJbrV8tuztq+kGnlfszkDSeThtH07ZBYf7aVhFqXLInE/3G8d/xQKMJ0b/TEJe1HmYWcq/DhRtO6xp/NGQoiU3yhuyGFNlPOHP9ctxhSwQNpM2VdUyyZJL+zzr2Bg/rR3lFYh46tsD45YAyrNvSCtMXdJDkolCfeIQPp+dvVG0Es3QDDcnfi5IaE/TjSZD5MNOz7+91BfJYnPnH69PgZZZWtO2TWZahav1VF89xM92BYX4aA+UCZLpOD69w2YNs9F0xYNhE08nIi4Ge+mwyHiUwn1Cx/S4lhPSmzKNNQOWRGtYt7M225c/WAS66uguW/DAq5hExnt7/drPPmJxOsXtU692DcIxMfMiwEUR63bBp4164YMhFRyLVyfZc3XugDx2sv5OdebO33sjKvG/n8Vc3dJvL8t/7l4DEGSlTCSj0lcmeoZeicgU7uFYWmYoatqM4yCGOi9q/kkQSSUj6dVejUlaKQMnNQmeCGFAr3+ad7fQVjG7hr8/2V+V09eVH+upddF4+KuZE7aFtSn5rNiMNlmQhOaLH2R7TsXOWUPC0/0yny4oRK63Mlsbb++4xQJpD0xVO99W82RO2PuB6JnnQYCiETwTNDuqa6b2j36zJ2eYC19xpXN3R9zFssmYAQJ/jUIwZv7BiETPZz/vrfAzdJDCeCNPXwfuagjLmQwffzPltXEORgFbOaN5Ozk5HEIpjHle46BwrJK0CmM03nGITR3E0yHPfEmZ3gbgt3VTzlEKtl5z5fSkOJac0UYnsConWsaH8IpMx6Q+A4Y9UpEM4Lsl3PdtM15cNg0fhndZLsOJxkIqbcfmaIdXuTAL+LwsEFKxDo+8O+ksoEREJBUbKBm0Gx9idcxUMeLxRIplKz+Sv9j7ywf2t7Q7HWxDtyKWbYqoYcYJV0Hsk3NDIdE7O1jqWU5QXqXHnzZYPW6Lz5w3t7nPCn3nWNXCgOW5WqWLc6G0oMp0IeCZdGyGAsxAx/k3xnYyvanpTt12wQV9He55OJN9L50BjzclAjLVi/2N/RqQuHYV3vDhZnTVoZuj/OE3Jj+XLMMKkhbF0cql6/xScDAycBw7Z0ablxuMk0sXZ0yGy+UdY9Xn/RlhAUe2yMSlEATOe7IcrfszK05rHWbWVR6+cn8C5lqrzMtrNQvvtIOMkj/UadzFeoZeKzXGYi7rv4CLyHGYrYbXJ3M6W+cVgihHj3k+1j+e4BvhuGSCa4tu9XsZZ9fn/9AHJVrtsvTy2nYlLrWzCmFe7/ynKWjKuwLsUEtF4IZ8ZrhsU6va3aOac0mnhehO8KZikqu1W+y5UNK/c5z0S7NMRn7WVQxM14EaFRBMdBClsH1BW3n6xTF4doYp4MOH16WhuZiZztaN/WAYG7OP6sDGGKuxp/BO15py4pNw43mQQY1EjL4gGKxiOJWNsjqgaKkAe18DJQ/haXkJCBWOe2ZMhd6L+SJi+uJzi23JzZGOKDiV7fCyUTcGx45anQnef6Nz9QrztGA+sznFfld6nT+RPq+02/RRsimXiOaWLSn643qzyZye2HuI26Brr2U+7kZdmr9fnnfLRhJfo5e6JtlyLfNYNcwiGDW8dUIApU3DQb6w58d8m1UafKDq6p5FEJdIpC8g6CQa4y095xMh+pHhpCKtw8W3a82D4hKMrmZ2oQRUC9HCz68RXtD6rJqwuvkxsUJKy3YSFkhG9/sBhEJufPZ/8AljwLzqqtHV0asZ4RhfYURIiN8SnkWRxa7Yp2dy0hZSA/5ZIuL7rwiB8Via+UfKb9oIw1x4/E4C5vgTiOj1REWy3Jx3ppKdLrY0B9oVj7XrlFY9inSfu894gY1ktFk4kotz+I/r4g5UtfEWru7IMOL9EpBoJuXtiZXBLDsqX8jg/Cit6MJUUN9PdsnWIYYNo3qxlb3INXukcMPD9yO/whnSo7ypv+E0pzQPJxoFgOP69+AAPm/HRiMa9nyoCxVYmrS6rWb4aQdshWOctODdxK56BUrLlPVa75urpsQXHPA/Gmcdh6Xs3c7CrTzC08pM7+vEyh4K7RD+532zjzPt66f+kj03PfEys1HchyXY8vS4YfPQRFyXPw7OHSm04sibZOgSx+J0Rmf3w56e9VGx7DuFbzsXDJw6dm0Wc1A7Ll2deU5k/L74Vi4sRSTEZLSyrXPMqHG2U8Uut0n316Wk2+/aOiC1w2RFtf49uxRO9gHYdEJsKwfuc+vQAiCani27Kurel+ms7MMTE+77Tx4rKYMxl9ryr4wdOCII9aoFAzMU2e2mTgd6O5KusTuOmga1C9oT8/Q/UmlJHnEfViwKd+WWZqHQyxtmkYoIN7+IsHwyxb9/u46UO8xZ0Kvt+gcp3bRn7qM7i84OLel6Xl5g1bl+rYwsDNpUg8qmKpY6o/uZZJxTexXjCap4IETFPUoXEqLqldeuyYaHyKjEdqnRLSFDza/DGpj2kP5gWivDzt7epxqWLYL/L/9OrYjDi20roY7uBPxvFB1wABAig1vqLl5JDJq0ncooc7K6Syr8x70yZAgAADMcqwpodquCblZgbXzHD3hnphOECANzOwBm3Vm2TuRk00YSm+0z5AgABFgM/jeTcwGKbdzaOH/K9dDhAgQAqiLT/zj3L0xkMomnh2LLfcAwQIUAD4BqTqjQtlo0GIxHPNhGy/l0WsSTpVgAABsmLS8rEhvuU32topZ1jcbPBuxMg78VoWy/Z+gAAB8oC30XmPjofA4ta1yYZDSaztRRWJ1+pUAQIEKAh86yt37sTFa9taVtH6G3liIUCAAEVCXqbCWzpOPd98dUG+f4EaIECAkQSl/h8mmq15k1yedAAAAABJRU5ErkJggg==;" vertex="1" parent="1">
          <mxGeometry x="-46.38" y="924.22" width="80.5" height="32.43" as="geometry" />
        </mxCell>
        <mxCell id="DG2oI-M4Yr5_Z9j_e3_I-64" value="Local&amp;nbsp;" style="outlineConnect=0;dashed=0;verticalLabelPosition=bottom;verticalAlign=top;align=center;html=1;shape=mxgraph.aws3.user;fillColor=#a20025;strokeColor=#6F0000;fontColor=#ffffff;" vertex="1" parent="1">
          <mxGeometry x="573.25" y="867" width="34" height="43" as="geometry" />
        </mxCell>
        <mxCell id="DG2oI-M4Yr5_Z9j_e3_I-65" value="&lt;font style=&quot;font-size: 11px;&quot; color=&quot;#ffffff&quot;&gt;EMEA&lt;/font&gt;&lt;div style=&quot;font-size: 11px;&quot;&gt;&lt;font style=&quot;font-size: 11px;&quot; color=&quot;#ffffff&quot;&gt;Local Payroll Systems&lt;/font&gt;&lt;/div&gt;" style="shape=cylinder3;whiteSpace=wrap;html=1;boundedLbl=1;backgroundOutline=1;size=15;fillColor=#858F96;strokeColor=#FFFFFF;" vertex="1" parent="1">
          <mxGeometry x="745" y="960.21" width="105" height="80" as="geometry" />
        </mxCell>
        <mxCell id="DG2oI-M4Yr5_Z9j_e3_I-66" value="&lt;font color=&quot;#ffffff&quot;&gt;LATAM&lt;/font&gt;&lt;div&gt;&lt;font color=&quot;#ffffff&quot;&gt;Local Payroll Systems&lt;/font&gt;&lt;/div&gt;" style="shape=cylinder3;whiteSpace=wrap;html=1;boundedLbl=1;backgroundOutline=1;size=15;fillColor=#858F96;strokeColor=#FFFFFF;align=center;verticalAlign=middle;fontFamily=Helvetica;fontSize=12;fontColor=default;" vertex="1" parent="1">
          <mxGeometry x="745" y="820" width="105.5" height="80" as="geometry" />
        </mxCell>
        <mxCell id="DG2oI-M4Yr5_Z9j_e3_I-67" value="" style="shape=image;verticalLabelPosition=bottom;labelBackgroundColor=default;verticalAlign=top;aspect=fixed;imageAspect=0;image=data:image/png,iVBORw0KGgoAAAANSUhEUgAAANMAAABVCAYAAADT7tEcAAAAAXNSR0IArs4c6QAAAARnQU1BAACxjwv8YQUAAAAJcEhZcwAAFxEAABcRAcom8z8AACAVSURBVHhe7V0HdFzVmb4jWbbBGEJJYnYTSNndAAmQShpZSCPZQLLZTZxCc2Jr3psZNTdCnKbkUGzJFnLBYGOCg40tvfdmVFwxgdiwCyEcWkJJII26xoAdSZaLbEuz3/e/+55Go6myjGXzvnPumdHc/t//u/9/y3tSAUY2Xq5Vp+ycqy7MFfYgdM1T5ydr1VidLUCANyf6VqhxW+eqcR2z1Xt21qub9zaqFV31buisV08lb1TJnGGxSvYtUMmuueoBL1/vfLViZ52ajTJPZNl9CLq6AAGOLnTXqQ/33ai+DMvy830L1FYQYSuItF3IcVN/6AVJkCZv6J6H9AtT8t7sE+wVxG/d2yDlV7DOjnr1Xt2MAAGOTCSXqlNgaebsvUHdBuvRKRYFBNjXqJL7EfjZnYEoQw0kWGrZQjbUibi/7p+vlnTWqauSywPXMMARgleuU29PLlMXwhLduH+hejm5yLUcINQg5T/UwSMqiCSWS4i2QD3fVad+gr8vxPrsWN3sAAFGFuBizQJpHqPi0l2jEtNapCt5MWFPg0sCht34nilNoWEX2nIAbWLbSPADC9TdXfOUoZsfIMDhRXe9mnBgkZoE4vxJ3CoEKm4+940ko3Iz9MBqeeue9CDl1KvXkWcHrVumNHTlSDqvvLx160/m6wFJO+eqp/tuUpf88So1XncrQIA3DslaVYJ10A/33KD+QKXkbE9FTlfc1EACcZOAhKOFIAH4iXK2QaGvxeeP00PHHPWdXXPVx7bPUZ/C+ut7u+cNTgOLuBChh9aLZYrlQR35NjOQR6ydpEcf9s1Xm/FbRHcxQIBDD8zsk3oXqie5HiI5MimqF0ggKrhYEKSHsj4JAj2OdUvjjtnq3L6F6tyOG9R7dNFDBso9q6dBncsyO+uUdaARddSrP0u9sHpisXKQndaKO4vcvEB4fOds9TlddIAAww+sL87ouxEWZK7qpeJlU04osWw4eBYCf++FKzcH+WYlbVWqizvk4JkT2nMtrM+NXnsYaI3QlsHtRoDl83YAd8DS/RiTxVt1cQECHDzg0o3qu1mdh7XLX5PLsisjg8zwsAZ7G9RepP8fWJ7P4PMcXdRhA11FWKevod1/EEvpEiZjYN9kfXYr/mYfGtWZupgAAYaO5FJVBsti9cJFowuUSfkYfEuEdL2L1WqQ6mJdxIgD114HFqkNJJS3dsvUJwZv9w+kmqOzBwhQPHZco07vrldNtDTZtqXp6jEei/fdIN3dexrVhTr7iMaTtWp032J1EazQ70GmPq6rMvWPQawUiAfrVvf6teqfdREBAhSGjjplQMn2cVbOtjbyZm0o5eo9N6iLkC3k5j5ywDUcrM7lsFTruQ7kjmCmvnIy4WZLT6Pa0TFHfUlnDxAgN7pApH2LVK8cuqYplb+egDVC3DN0mXS2Ixr2RFUKIv0MfdxBK5RpAuFvvQvlFsXOHXXqEp01QIDMIJFobXiYmb7JwL97QTAs5PfD5bmj6yjc6UIfz8JksYVWiJNGav9FBvWuNd7bqHaBXIGFCpAZUI7yfQtVbyZXR3bpeMeuQe3orFNf0VmOSrzQoI4BqSJw7fq4oZIuC04qB0Co/QtV1/bZI3ejJcBhAmZcU2bjDBaJ6wW5UbBQPfSPOvVZneWoB9ZSl4Iwz2c6U/MsFNaKu4M1VAAfUJTJPQtUX7pFIqnkTAbKBMW6bsccdYLO8qZB13XqjN3z1G3eLYp0+dBCwZp3dgYWKoBnkTKtkTwiwTJdrZO/aYEJZwk3XQYRyrNQDWrv9qPc/Q2QA7RI+7JZJO7YgUhQlh/r5G92hCCLX2YiFINs2ixQXUf7ejJABtAt4TZvJovEXay+wCJlxO5GtTirhYI88X3v3jr1rzp5gKMdyYmqFIP+2/SdqsAiFQbI6pZMayjZ8XRlukwnDXA0A+uj4/c0qjtkhypFERhIpD4eWDaoWTp5gAxIwuWD9V6ciVD8uxeyxeccbrHrLAGORnTUq6rkLYO3ekksbkR0zVM/0kkD5EFnvVqW0bpz4waT0vbr1Sd10gBHG7oa1Zkg0YuDNhzg7yeXiCI066QBCsDWGWoc1pXynr/0dSfvLe5qUPfvvE69XScPcLQAVmcMSPMgF8+pg87AA9me+erVzgb1CZ08QIGATL8B2e3jPcZ0QtEDwOctOmmAowFyM3quqty/QB1I9/G5cwe35JUdc9T5OnmAIgHX+dLeBaqLN0VSZcs1KLyAzs656j900gBHOjoXqZM767LMnstUsnOOmq6TBhgiYKF+pS2RHyhrrqm66tRzOlmAIx0g0kKegaRvOuwDuXY3qk3dN6hTddIAQ8SeevVeWKLfc8JKlTE9gQM3qh5YrwqdNMCRCr6xZ898tT19kOmC0C15eY46TScNcJDYWac+K++WSJm0aJ34yD/c6Ue3zlVv00kDHGng+xs669VmDjB37FLJxN8wW87n49s6eYCDRN+tajzWn+08f0p1p2W3FL+BbHU6aYAjDbvmqq9yG5yvr0ol0v4F4vK92tGg/kUnDTBM2DlbfQFeQE/6g4UcB5Cqo2P2wb8jMMBhANZK9/IMJHVQeaDI+3hwRb6okwUYZkDuNek3TOSqEb2BOjVXJwtwpKBrjjp/d6PaLsRJGVRuRGBA730jXwb5ZkP3tepUrEef4QZPquwPQPaYzB7ZOT84yD1iwPeAd85T1+hbDf5gypWhxWp/d2Nw7nGosbNeTe+7WfWmWidZO92skljHXsn7fTppgJGMzkb1vl3zVBd37LyBZJCdprnqzuB/wR56wM07DkR6hv/cLXUMxFrVq7+9GZ9aPiKxvUGdLRsPKSfyPO/YO1/1ds5RM3Wyw4va2hJlPFzmh4n2yHM7a5Mlo6PWdFW1dkmoev2ScZXOd6XdBQIWKMGHBlOtkzw/Vq92dtSqk3SyACMZO+rVOUkMYiqZ+GpjDO7+voYRMohh5yJVteE5ZdjPqcq1z4VMp/2sWntkbdMbViQ0/e6kmnpXUk37dTJUua5XheNf0LF5satBnccbEKnjoHf19vCfCuhkAUYyOOt1zlVtXDNxMCXcJGRaNGI2HsLxb6hp9yRVRXtS1WxKlprOC+f+aO3IevWwaf2YJFKm44aaO5Oq3PovHZsXfXVqPIjTnj4OWMfOh6sdnO8dKeAt8T2NasWBBerB3kXqwT0NI2xL1oh/HZbJVdKKNcnSiP3sh65q+ycdOzJgWFerqZv6yVS1PqnC1td0bEEgabB2vZ3jcADjsOsGNS+ZDDYfAgwn3iRkChDg0CMgU4AAw4SATAECDBMCMgUIMEwIyBQgwDAhIFOAAMOEgExHMWo3j1Ixe4KKrZugZm6eoKYsK+6mAPNJQBkzfzdB1daO0jF5cfLkW8dLnQyTlr9F/1wcjKVlUq/0ISXMRJumWAd/64Fls30ZcKKx9ASJ8+tE2gvy9P9gyHT5irf58p6yemg3sKust/rjJUF/T8Vwk2lymzvOfp263intxffhkqXH+mVR3kPBNxuOcXVm3YRjUc7pk5YP053NWOsHVSTRrSLxbhVt7Vaxtr8pw/mojs2NsD0DCtENgbuhci3KaWlFeXkfU56AQS2JtTyqYu2ok/W2P1twvcDba5reVRJbcwXa3aYqUK/XBi9EW7pR3t9U9Z3fV5euKv4KS8w+Thn2Lapyndsv05mtqhaM0bFqVHj1x0sr2p4QmXl1Sv8TbTn7P1QyhZsuwti8ljJWu1TEmaxj84Pkq9loKtPehjHqb7OJsvhZs/EqZa5y3xVuNP1wWMgUsT6nqjZegTofkXH260RgPwy7E2NXM6rc+YzOkRvlLf8WirU/4JfFsTGabynqfqMQuW2LqzPx7pLKNd1l0eYrdexBwmw5D41KooIkFDCpZmxOhkznNh2bHdOsYyCM10XQ0VY3xBB4nyvc/DGdKjNoDU2nXa6p6LyhaXcnQxHrWp0iN6JNnyqpbH82xLoq17rt9trgB/zGPvFaTOW6h6GAP9S5C0O45b0YNCg8AuVjOj3yO/odiiSWo/ztbt9T6mZ9TGtY2d9oOhQyTWn+CvrZKWWzvmrkj7b0oZ7LdYqcGAt5QXEeU9N/445RJnlNvwefib+LsplWWMbxYMhkWN9Ge3tE/pRhxjFCQD2hWBsnvxt0zuzgmETbnnX1huMLvQHpx8Scwh6LJ+kMZ4mCrrntQZh5H8bLLk43ssJo+aQMjic4KFBJLP738TXW+3SKjBgVtWeFKtb2QkmTbkgguAqiws40lUxmvzrCi50miEghs85K5DHjTwpBcwFllpj2lVDmf8gAMy/rZfsp4NQgBEC7TNtVhmr8Vm79QpeUH+XWuyHk/b7QzfhOKNkX0cc7RCnZT4mjUuCTMpDZPL5AJotsKJZM5c1fQh27ZdIw0BfWW7l2J2bkr+oUOXGMaZ1XUgGLJnUiP9vJNldvHCwvfhrO7xCWS32eThRJplKj+Voofa+ML9ucqT6ZiPA7y/cmPcP+ZV4rU25NF5Jy3JkX5YZM60EdmxvGr09AHZ1+vfysXPcqxmyY/h1ORcvJaFibqpLZ12+g3G7OBdNaqKa6lyFDUDoo+R5RXg626WzVqbLDsJ7rJ9NalOE8rWOyY8rqL4J4+6QODhIHgcphWFfBpYDLlxJoXdkPxlOJqPAcxHKsBwpBKpnYRhk81oXfWI4rK+222LtCbNNVmOXCzk91CZlROJlCykh8Ge4ILFIKkWKte1BHYQ85VqDcCMiROllGWg6EDGs7fq8YIC/DvkHkSSWnRWZ9Xp5iyGTal4mye0SSSc15HfoyJbU+jPcv4AF1a31xx4nW0LAW65IyYyIm4rC1S9rKfEKI9dsKIkQ0/h6OlU8mTrCGdZ+OHSYY8Z/03xJGpzh4YbgGWXD8NOskWIc1ImSZwex7Q0bzXBk0CBGD9fJpP1yXfZ1CN4huknQK9SHPmIg1X8dmBtsTbXnFtWIkh8wq+1S5/T2dYhBC0dbZWAv0EwoDi9+eE1cmH9LJJANHC5TgIwlbSqLxb7v+tz3hxGjTO8vY/khipSy2c6FQMk1cekLItGFRIGOZOKCcFWs71ORVX9cp8sO0E+LSeO2XWdzZgnZmXtNFWqKQEV2u/jwMhZIp0vwBktUnEolS0b4dZVyoUwxEVeIdsIJ3Sfmsh/mira+KO5cFpxpLjy0xrM39lhP10FPg+j0fTHsl6uqTfNSJ2JpekLxRxw4PxsXsGSVVa/tcpWOnIATDXp3NXSmNNH8pxFmfaTnzhO1NYh04Y6MMun+jYk72/yphWCt8n5wzPmcZI36Gjs0Mw1rvKwbbyXpzEMlH2FqGtBAa8lHwaOOYqLPiyymbCRmRkUwyo3VgdjxOpyoehZLJSFzvKgz6yjbIhGOX69i8KINiw/3ZKgoqbaecW/tKI02X6CSZYdi/7VdUHQolk2H/yicGZVXRvksmzhw4sdo+rbSi5QW4hW4+TuqRONZPOZYJ9JoqN+gxRXCt229z7nDy4caIs1G8FWmfHtfIiuF9p99ZMfs4zIJ/dGd9No4zi7NDTGomUECVFJpWasNei4b+iM/nSP6pVPr4jTr1YBjWIn+3KCKzfY+KNp2pYwdhfFXTp0qjide1Muv22U/DKhSm1NGWe3wFhhAxs/Womjxb8elk4kxLMnPSKOKp00EohEyGVedOTK5rWQLlHh1pLu5F+Fy3pm4iUGZh6wFoVe62yw6cHlsvbyFkogsVbd3mk7eC3k3zOh2bE6GIdZs7UULGlHesrQN5P6yjB4Nra3pGnrvNybVqbbIskviATjEYfI6seuOufoPBCdx+Qo4Khh1h+1F/RnLJ9AIGffDsDWuFNdIvZTbgYFPBY87nRcmm6s5BkKVR52HOOjqXjwmx+OmlEecRn7h0DQ3r1ox1eTCdb/UrBpX6HuaJ6Nj8MKwWf0aiMDFDj4o0T9WxmZFOJvY31v443M2sLkhByECmc6dZ/Q8HRpzrxZcXItGSboKSWJvPq1p5vE5RGMoTVQPIJHIuYNPiKripJibH1DV0IWQyYE28pQJlTHmFV39cx+ZGzD4f6beJLnleh7E65zHJ2EjT1aGKdnhT7oTD+kDKRTp6MEwnZYdST4wRq/CjhaIQbv6G2xk0Tpi+fj8aeZ2O7UfVs2OgZJ3iw3tkql5zmoquOhGK94TMSGhwCGuV0ormL+lcPkCkS0L+Ah6d4pbsFCv7op2Hsob9k373AXVWru+Ashf85Cfa+QH0ZadPDHftgFk6B9LJxDYb1h06dujIQKaPz+LhJSwGz7I8i0RLKN9bHpLD2iLAQ8hS01rly0z6zDqtb+okuRFuqlTTUohYEJnglvrehiaT0fzvOjY/wtZTojsy2bVzMp6oYzLiHdOWnYTx2C16yDqRNxSJP//WTOthunKmjbWyt2mBMa1a/49Cd0SLxxS4WR5BWKHL4sHnTXT9DOclNy1cpojTPSZmuW9INazf++6fDKQ1+IWPRuvnfWUCEUOV7dtHR5qy705NWj4BirVXSMs8MsPaG3RsYZj8v+ORp8Mvg/Ub1j06NjPSyUTLZjiOjh06MpCpwbKOGQ3lkXUo3V7G0WWOtT2kzF8V/Uj7+Ij1Pkxa/WMp5XECs76lk+TGEG5AYHJaOMDtkrW0dYGOzg/D+ZMQkPlpZUz7yZzHK1xTRZzFvseBUII2j2bb0xFOnIqx7B04Mdp36thDAJ5+m/FXUpV2lGklPtGQdvZjOteo6vX7RGCwPiGzud7fqKA7JZbJnZkgkPtBhv6rGvJmnrghgmYdcCVC4TxnBFxUGg5P/P124e/iBGGsOQXC6z9fEGW279axmfGGkAnucMR+/J1TnfeHovHHfWVyJ6r7lbHqFJ2rOBirzpAx8MjEw81I/PVR+Q7TPRRJpgk1TWeOjTmv+fLFMgF/P316Teu7dJL8SCMTZP/X3GQCwtbZWJq83j8BcYziS9LPK0dHrIWhyjV9IhMGeUGMdZOOPkQw7Vn9QownR1e29p5U2TzwrTSGc7trteiicdHY/AMdw8Xr+4RkHETX/L424K4eNzoMe5tvbl2//CEdmxkumeCiHYVkQtmYcF4oMe2/+BOM5yKVr/qIzlE8OA5SliYTyFBiWL+eWOhbkIq1TLGW82Us2Xamp1WNFHgrwcNgMj2bl0yE6SzzzjulfuoWt+hTwa10Eo1pqAP0dKgThxSG8ws1A2sYEoUVU4GiiYt1rHtfLRJPiEKjUaFIYscY7v54YCeEILpT0ZZtqnzFu3WsUjM2jUO5r7odxkAz5Fv7HM1kghxApGfKInZCyOQpIyzWKKO5RecoHulkoszCdquOzY9iyWTGPy0bSj6ZZLIdvN7OhSGSqcSM/wzt2y91C5kwiYctX2fp8sLq/8XfZaTuGdafVTTHOeiwIAwrVLn2/+gWeELEQrZf2SlQClbiqBDcak0BbwGb9n2+UGQBbS3XsRAYNxOcrQPIZKzJ/X+SjmYyQU5Y2zw1cY59Asqu82XLdvIyZ7SINUcqhExULk0mktO0Hv3grAK3gYsk0/ga5+NlFZCTRyb0ryzqOOfMWDFOJ8mPoVom977dS35e7kiHrT/oWBA9YfqWi4FeVdi6QsceYvB6RbUeVLAZbshDUMZjJW5y0+dFmRnH9U7EuUt+T0XYjvlbkBwQ3ur14M4iPSJ0Kikvypp5/OrwylOlLE+paa7D9hodWxhGNJnsZ2O1sPjoZyja0iPK4N8eWNOByaT4/9phxM8IcUL0lBukKqts6zmpqin3FTEPRZKJpCmLYL3sTQaorzTWsv+YQrfGiaGSiSi3wiI3sUxt9JheOanKOkvyU+dSN0aqNvC2fe6D62GD6TzmC4UWhCf+PAOamCyFJWpwG50AyeJ94yoSgwZ6VLR5VkjOG6AQTBtre0AUk6AyekSjX21Y03OedBOXrTwegt0wQNCx9qfQlrN0ivy4HO7lgN08EgMWNBfeQDK5h7aQQyTxNcjMtcIklMivvQNpM1/HyYLjpyw7qSRsbXI3g1APg6tQhe3mhZtnFOXmEWbiGj8PlVbWgE2Ftzts/3HIZOIBb6qbKdv68VnqAnk6oad/DLmL57Qf1KF7UeB5UyThXi0Sdyz+mpwST9o8FgTZI7+5V1PQsMEu2thY/PRQtPVJLRD3NoThnhmUGs2WO6j4nfepeNBbCHg+IqYa+Vim5LUNHZsfEedaKJbrV8tuztq+kGnlfszkDSeThtH07ZBYf7aVhFqXLInE/3G8d/xQKMJ0b/TEJe1HmYWcq/DhRtO6xp/NGQoiU3yhuyGFNlPOHP9ctxhSwQNpM2VdUyyZJL+zzr2Bg/rR3lFYh46tsD45YAyrNvSCtMXdJDkolCfeIQPp+dvVG0Es3QDDcnfi5IaE/TjSZD5MNOz7+91BfJYnPnH69PgZZZWtO2TWZahav1VF89xM92BYX4aA+UCZLpOD69w2YNs9F0xYNhE08nIi4Ge+mwyHiUwn1Cx/S4lhPSmzKNNQOWRGtYt7M225c/WAS66uguW/DAq5hExnt7/drPPmJxOsXtU692DcIxMfMiwEUR63bBp4164YMhFRyLVyfZc3XugDx2sv5OdebO33sjKvG/n8Vc3dJvL8t/7l4DEGSlTCSj0lcmeoZeicgU7uFYWmYoatqM4yCGOi9q/kkQSSUj6dVejUlaKQMnNQmeCGFAr3+ad7fQVjG7hr8/2V+V09eVH+upddF4+KuZE7aFtSn5rNiMNlmQhOaLH2R7TsXOWUPC0/0yny4oRK63Mlsbb++4xQJpD0xVO99W82RO2PuB6JnnQYCiETwTNDuqa6b2j36zJ2eYC19xpXN3R9zFssmYAQJ/jUIwZv7BiETPZz/vrfAzdJDCeCNPXwfuagjLmQwffzPltXEORgFbOaN5Ozk5HEIpjHle46BwrJK0CmM03nGITR3E0yHPfEmZ3gbgt3VTzlEKtl5z5fSkOJac0UYnsConWsaH8IpMx6Q+A4Y9UpEM4Lsl3PdtM15cNg0fhndZLsOJxkIqbcfmaIdXuTAL+LwsEFKxDo+8O+ksoEREJBUbKBm0Gx9idcxUMeLxRIplKz+Sv9j7ywf2t7Q7HWxDtyKWbYqoYcYJV0Hsk3NDIdE7O1jqWU5QXqXHnzZYPW6Lz5w3t7nPCn3nWNXCgOW5WqWLc6G0oMp0IeCZdGyGAsxAx/k3xnYyvanpTt12wQV9He55OJN9L50BjzclAjLVi/2N/RqQuHYV3vDhZnTVoZuj/OE3Jj+XLMMKkhbF0cql6/xScDAycBw7Z0ablxuMk0sXZ0yGy+UdY9Xn/RlhAUe2yMSlEATOe7IcrfszK05rHWbWVR6+cn8C5lqrzMtrNQvvtIOMkj/UadzFeoZeKzXGYi7rv4CLyHGYrYbXJ3M6W+cVgihHj3k+1j+e4BvhuGSCa4tu9XsZZ9fn/9AHJVrtsvTy2nYlLrWzCmFe7/ynKWjKuwLsUEtF4IZ8ZrhsU6va3aOac0mnhehO8KZikqu1W+y5UNK/c5z0S7NMRn7WVQxM14EaFRBMdBClsH1BW3n6xTF4doYp4MOH16WhuZiZztaN/WAYG7OP6sDGGKuxp/BO15py4pNw43mQQY1EjL4gGKxiOJWNsjqgaKkAe18DJQ/haXkJCBWOe2ZMhd6L+SJi+uJzi23JzZGOKDiV7fCyUTcGx45anQnef6Nz9QrztGA+sznFfld6nT+RPq+02/RRsimXiOaWLSn643qzyZye2HuI26Brr2U+7kZdmr9fnnfLRhJfo5e6JtlyLfNYNcwiGDW8dUIApU3DQb6w58d8m1UafKDq6p5FEJdIpC8g6CQa4y095xMh+pHhpCKtw8W3a82D4hKMrmZ2oQRUC9HCz68RXtD6rJqwuvkxsUJKy3YSFkhG9/sBhEJufPZ/8AljwLzqqtHV0asZ4RhfYURIiN8SnkWRxa7Yp2dy0hZSA/5ZIuL7rwiB8Via+UfKb9oIw1x4/E4C5vgTiOj1REWy3Jx3ppKdLrY0B9oVj7XrlFY9inSfu894gY1ktFk4kotz+I/r4g5UtfEWru7IMOL9EpBoJuXtiZXBLDsqX8jg/Cit6MJUUN9PdsnWIYYNo3qxlb3INXukcMPD9yO/whnSo7ypv+E0pzQPJxoFgOP69+AAPm/HRiMa9nyoCxVYmrS6rWb4aQdshWOctODdxK56BUrLlPVa75urpsQXHPA/Gmcdh6Xs3c7CrTzC08pM7+vEyh4K7RD+532zjzPt66f+kj03PfEys1HchyXY8vS4YfPQRFyXPw7OHSm04sibZOgSx+J0Rmf3w56e9VGx7DuFbzsXDJw6dm0Wc1A7Ll2deU5k/L74Vi4sRSTEZLSyrXPMqHG2U8Uut0n316Wk2+/aOiC1w2RFtf49uxRO9gHYdEJsKwfuc+vQAiCani27Kurel+ms7MMTE+77Tx4rKYMxl9ryr4wdOCII9aoFAzMU2e2mTgd6O5KusTuOmga1C9oT8/Q/UmlJHnEfViwKd+WWZqHQyxtmkYoIN7+IsHwyxb9/u46UO8xZ0Kvt+gcp3bRn7qM7i84OLel6Xl5g1bl+rYwsDNpUg8qmKpY6o/uZZJxTexXjCap4IETFPUoXEqLqldeuyYaHyKjEdqnRLSFDza/DGpj2kP5gWivDzt7epxqWLYL/L/9OrYjDi20roY7uBPxvFB1wABAig1vqLl5JDJq0ncooc7K6Syr8x70yZAgAADMcqwpodquCblZgbXzHD3hnphOECANzOwBm3Vm2TuRk00YSm+0z5AgABFgM/jeTcwGKbdzaOH/K9dDhAgQAqiLT/zj3L0xkMomnh2LLfcAwQIUAD4BqTqjQtlo0GIxHPNhGy/l0WsSTpVgAABsmLS8rEhvuU32topZ1jcbPBuxMg78VoWy/Z+gAAB8oC30XmPjofA4ta1yYZDSaztRRWJ1+pUAQIEKAh86yt37sTFa9taVtH6G3liIUCAAEVCXqbCWzpOPd98dUG+f4EaIECAkQSl/h8mmq15k1yedAAAAABJRU5ErkJggg==;" vertex="1" parent="1">
          <mxGeometry x="553.25" y="948" width="80.5" height="32.43" as="geometry" />
        </mxCell>
        <mxCell id="DG2oI-M4Yr5_Z9j_e3_I-72" style="edgeStyle=orthogonalEdgeStyle;rounded=1;orthogonalLoop=1;jettySize=auto;html=1;entryX=0;entryY=0.5;entryDx=0;entryDy=0;curved=0;strokeWidth=2;strokeColor=#1A1A1A;" edge="1" parent="1" source="DG2oI-M4Yr5_Z9j_e3_I-69" target="DG2oI-M4Yr5_Z9j_e3_I-67">
          <mxGeometry relative="1" as="geometry" />
        </mxCell>
        <mxCell id="DG2oI-M4Yr5_Z9j_e3_I-69" value="" style="shape=image;verticalLabelPosition=bottom;labelBackgroundColor=default;verticalAlign=top;aspect=fixed;imageAspect=0;image=https://upload.wikimedia.org/wikipedia/commons/thumb/7/73/Microsoft_Excel_2013-2019_logo.svg/1200px-Microsoft_Excel_2013-2019_logo.svg.png;" vertex="1" parent="1">
          <mxGeometry x="384" y="920.43" width="42.37" height="40" as="geometry" />
        </mxCell>
        <mxCell id="DG2oI-M4Yr5_Z9j_e3_I-70" value="&lt;span style=&quot;color: rgb(0, 0, 0); font-family: Helvetica; font-size: 12px; font-style: normal; font-variant-ligatures: normal; font-variant-caps: normal; font-weight: 400; letter-spacing: normal; orphans: 2; text-align: center; text-indent: 0px; text-transform: none; widows: 2; word-spacing: 0px; -webkit-text-stroke-width: 0px; white-space: normal; background-color: rgb(251, 251, 251); text-decoration-thickness: initial; text-decoration-style: initial; text-decoration-color: initial; display: inline !important; float: none;&quot;&gt;HR / Payroll Partner&lt;/span&gt;" style="text;whiteSpace=wrap;html=1;" vertex="1" parent="1">
          <mxGeometry x="543.25" y="910" width="120" height="30" as="geometry" />
        </mxCell>
        <mxCell id="DG2oI-M4Yr5_Z9j_e3_I-71" value="&lt;span style=&quot;color: rgb(0, 0, 0); font-family: Helvetica; font-size: 12px; font-style: normal; font-variant-ligatures: normal; font-variant-caps: normal; font-weight: 400; letter-spacing: normal; orphans: 2; text-indent: 0px; text-transform: none; widows: 2; word-spacing: 0px; -webkit-text-stroke-width: 0px; white-space: normal; background-color: rgb(251, 251, 251); text-decoration-thickness: initial; text-decoration-style: initial; text-decoration-color: initial; float: none; display: inline !important;&quot;&gt;Workday Inbox&lt;/span&gt;" style="text;whiteSpace=wrap;html=1;align=center;" vertex="1" parent="1">
          <mxGeometry x="543.25" y="980.43" width="100" height="30" as="geometry" />
        </mxCell>
        <mxCell id="DG2oI-M4Yr5_Z9j_e3_I-80" style="edgeStyle=orthogonalEdgeStyle;rounded=0;orthogonalLoop=1;jettySize=auto;html=1;strokeWidth=2;strokeColor=#1A1A1A;" edge="1" parent="1" source="DG2oI-M4Yr5_Z9j_e3_I-73">
          <mxGeometry relative="1" as="geometry">
            <mxPoint x="380" y="940.4300000000001" as="targetPoint" />
          </mxGeometry>
        </mxCell>
        <mxCell id="DG2oI-M4Yr5_Z9j_e3_I-73" value="" style="verticalLabelPosition=bottom;html=1;verticalAlign=top;align=center;strokeColor=none;fillColor=#00BEF2;shape=mxgraph.azure.cloud_service;" vertex="1" parent="1">
          <mxGeometry x="221.5" y="920.4300000000001" width="50" height="40" as="geometry" />
        </mxCell>
        <mxCell id="DG2oI-M4Yr5_Z9j_e3_I-74" value="PECI Integration" style="text;html=1;align=center;verticalAlign=middle;whiteSpace=wrap;rounded=0;fillColor=#f8cecc;strokeColor=#b85450;" vertex="1" parent="1">
          <mxGeometry x="75" y="885" width="100" height="30" as="geometry" />
        </mxCell>
        <mxCell id="DG2oI-M4Yr5_Z9j_e3_I-77" value="" style="shape=image;verticalLabelPosition=bottom;labelBackgroundColor=default;verticalAlign=top;aspect=fixed;imageAspect=0;image=data:image/png,iVBORw0KGgoAAAANSUhEUgAAAgAAAAIACAYAAAD0eNT6AAAAAXNSR0IArs4c6QAAIABJREFUeAHtnXmUHVd953NOZjJz5u8589ecg+U1YCAQs00SluQkGAgJJMQMEILJzkACAcKWZEhYQpIhbIdAwHGrLVvyvsmLbMsy8r5Ktixbku2W1RK21P1e7/ved86v7ZKfnl71q3vrd2/Vrfq8c3Re99O7t2797vd+v59XXa/qZ36GxwkVaDQOvbrZPPz1RqP/7kbj8LONxuG5RuOw4R81QANoYB0NjDQaR25rNg//Y7N5+LUnmAq/UAEqUO4KDA72v2lw8PAj6yxwIAAQQgNoIIsGlgcGDn6/r2/XaeV2PUZHBWpeAWPMf2o0jvyo0Ti8SvjzCQ8NoAENDRw79qzpe3r3Qn///jfV3GLZfSpQzgoYs+s/NxqHr9VY8PRBcKABNJBoQADg6QMPCwQsAgHl9H9GVfMKDA72X5EsWJ4xbzSABrQ0kAAAEFDzkGH3y1mBwcH+D2gtdvohONAAGmjVQCsAAAHlzABGVdMKHDt27L83GoebrQuWnzFwNIAGtDTQDgBAQE3Dht0uXwWazcNf01ro9ENooAE00K6BTgAABJQvCxhRzSrw4ol/A+0Llt8xcTSABrQ0kAYAQEDNAofdLVcFms0j79da5PRDYKABNNBJA+sBABBQrkxgNDWqQKNxeEunBctrGDkaQANaGugGAEBAjUKHXS1PBV68vG+Wq3nxHq76hgbQgJMGsgAAEFCeXGAkNajA4ODB/6FF+PTDp0U0gAbSNJAVAICAGgQPu1iOCjSbh9+ZtmB5HTNHA2hASwM2AAAElCMfGEXFK9Bs9p+vtcDph7BAA2ggTQO2AAAEVDx82L3iKzA4eORTaQuW1zFzNIAGtDTgAgBAQPEZwQgqXIFG48iXtRY4/RAWaAANpGnAFQCAgAoHELtWbAUajcPfSluwvI6ZowE0oKWBPAAABBSbE2y9ohVoNvu/q7XA6YewQANoIE0DeQEACKhoCLFbxVUAAMCw0wyb19GGpgY0AAAIKC4r2HIFKwAAYPKaJk9f6ClNA1oAAARUMIjYpWIqAABg2GmGzetoQ1MDmgAABBSTF2y1YhUAADB5TZOnL/SUpgFtAAACKhZG7E74CgAAGHaaYfM62tDUgA8AAALCZwZbrFAFAABMXtPk6Qs9pWnAFwAAARUKJHYlbAUAAAw7zbB5HW1oasAnAAABYXODrVWkAgAAJq9p8vSFntI04BsAgICKhBK7Ea4CAACGnWbYvI42NDUQAgCAgHDZwZYqUAEAAJPXNHn6Qk9pGggFAEBABYKJXQhTAQAAw04zbF5HG5oaCAkACQQ817/vjWGclK1QgQgrAABg8pomT1/oKU0DoQEACIgwkBhy2AoAABh2mmHzOtrQ1EARAAAEhM0TthZZBQAATF7T5OkLPaVpoCgAAAIiCyWGG64CAACGnWbYvI42NDVQJAAAAeEyhS1FVAEAAJPXNHn6Qk9pGigaAICAiIKJoYapAACAYacZNq+jDU0NlAEAgIAwucJWIqkAAIDJa5o8faGnNA2UBQCAgEjCiWH6rwAAgGGnGTavow1NDZQJAIAA/9nCFiKoAACAyWuaPH2hpzQNlA0AgIAIAooh+q0AAIBhpxk2r6MNTQ2UEQCAAL/5Qu8lrwAAgMlrmjx9oac0DZQVAICAkocUw/NXAQAAw04zbF5HG5oaKDMAAAH+MoaeS1wBAACT1zR5+kJPaRooOwAAASUOKobmpwIAAIadZti8jjY0NRADAAABfnKGXktaAQAAk9c0efpCT2kaiAUAgICShhXD0q8AAIBhpxk2r6MNTQ3EBABAgH7W0GMJKwAAYPKaJk9f6ClNA7EBABBQwsBiSLoVAAAw7DTD5nW0oamBGAEACNDNG3orWQUAAExe0+TpCz2laSBWAAACShZaDEevAgAAhp1m2LyONjQ1EDMAAAF6mUNPJaoAAIDJa5o8faGnNA3EDgBAQImCi6HoVAAAwLDTDJvX0YamBqoAAECATu7QS0kqAABg8pomT1/oKU0DVQEAIKAk4cUw8lcAAMCw0wyb19GGpgaqBABAQP7soYcSVAAAwOQ1TZ6+0FOaBqoGAEBACQKMIeSrAACAYacZNq+jDU0NVBEAgIB8+UPrgisAAGDymiZPX+gpTQNVBYDjEHBo3xsKtnM2TwXsKgAAYNhphs3raENTA1UGACDALnd4d0kqAABg8pomT1/oKU0DVQcAIKAkocYwslcAAMCw0wyb19GGpgbqAABAQPbs4Z0lqAAAgMlrmjx9oac0DdQFAICAEgQbQ8hWAQAAw04zbF5HG5oaqBMAAAHZ8od3FVwBAACT1zR5+kJPaRqoGwAAAQWHG5vvXgEAAMNOM2xeRxuaGqgjAAAB3TOIdxRYAQAAk9c0efpCT2kaqCsAAAEFBhybXr8CAACGnWbYvI42NDVQZwAAAtbPIf63oAoAAJi8psnTF3pK00DdAQAIKCjk2Gx6BQAADDvNsHkdbWhqAAB42AAB6VnE/xRQAQAAk9c0efpCT2kaAABeAAAgoICgY5OdKwAAYNhphs3raENTAwDASwAABHTOI14NXAEAAJPXNHn6Qk9pGgAATgQAICBw2LG5kysAAGDYaYbN62hDUwMAwMkAAAScnEm8ErACAAAmr2ny9IWe0jQAAHQGACAgYOCxqRMrAABg2GmGzetoQ1MDAEA6AAABJ+YSvwWqAACAyWuaPH2hpzQNAADrAwAQECj02MxLFQAAMOw0w+Z1tKGpAQCgOwAAAS9lEz8FqAAAgMlrmjx9oac0DQAA2QAACAgQfGzihQoAABh2mmHzOtrQ1AAAkB0AgAASOkgFAABMXtPk6Qs9pWkAALADACAgSATWeyMAAIadZti8jjY0NQAA2AMAEFDvfPa+9wAAJq9p8vSFntI0AAC4AQAQ4D0G67sBAADDTjNsXkcbmhoAANwBAAiob0Z73XMAAJPXNHn6Qk9pGgAA8gEAEOA1CuvZOQCAYacZNq+jDU0NAAD5AQAIqGdOe9trAACT1zR5+kJPaRoAAHQAIIGAnz775Ou9BQMd16MCAACGnWbYvI42NDUAAOgBABBQj3z2vpcAACavafL0hZ7SNAAA6AIAEOA9Hqu/AQAAw04zbF5HG5oaAAD0AQAIqH5Ge91DAACT1zR5+kJPaRoAAPwAABDgNSKr3TkAgGGnGTavow1NDQAA/gAACKh2TnvbOwAAk9c0efpCT2kaAAD8AgAQ4C0mq9sxAIBhpxk2r6MNTQ0AAP4BAAioblZ72TMAAJPXNHn6Qk9pGgAAwgAAEOAlKqvZKQCAYacZNq+jDU0NAADhAAAIqGZeq+8VAIDJa5o8faGnNA0AAGEBAAhQj8vqdQgAYNhphs3raENTAwBAeAAAAqqX2ap7BABg8pomT1/oKU0DAEAxAAAEqEZmtToDADDsNMPmdbShqQEAoDgAAAKqldtqewMAYPKaJk9f6ClNAwBAsQAABKjFZnU6AgAw7DTD5nW0oakBAKB4AAACqpPdKnsCAGDymiZPX+gpTQMAQDkAAAhQic5qdAIAYNhphs3raENTAwBAeQAACKhGfufeCwAAk9c0efpCT2kaAADKBQBAQO74jL8DAADDTjNsXkcbmhoAAMoHAEBA/Bmeaw8AAExe0+TpCz2laQAAKCcAAAG5IjTuxgAAhp1m2LyONjQ1AACUFwCAgLhz3Hn0AAAmr2ny9IWe0jQAAJQbAIAA5xiNtyEAgGGnGTavow1NDQAA5QcAICDeLHcaOQCAyWuaPH2hpzQNAABxAEACAUeO7D3HKVRoFE8FAAAMO82weR1taGpgYOCQefbgHv5FUoP+Q3sHjh3b9d/iSTNGal0BAACT1zR5+kJPaKBKGuj/mHWo0CCeCgAAVVqs7AvhgwbQgKoG9sSTZozUugIAgOpiMZgP9UQDaKBKGti3b9/PWQcLDeKoAACAWVXJrNgX9IwGdDUwMvL8/4wjzRildQUAAN3FgvlQTzSABqqkgaGhw79oHSw0iKMCAABmVSWzYl/QMxrQ1UCzefidcaQZo7SuAACgu1gwH+qJBtBAlTTQbPafbx0sNIijAgAAZlUls2Jf0DMa0NbAkc/HkWaM0roCAID2YqE/DLiDBgYPmeaRXaYxeIhvijQ61IfXyqyLb1oHCw3iqAAAgBkR2H400Hz+CTPy8PfM2M0fMRObXmkmL3yZmdx4upm44q1m7KYPm6Enryqz6TM2oGRNA5IRcaQZo7SuAADgx/wJ1XrXdejAjWZiy+tfCH0J/pR/AgLN/gcJW8K2tBoAAKxjNZ4GAEC9gwpQ0Z//kXu/ZiZ7NqSG/kkwsPEMM7T/+tIGABrR10hMNQUA4slz65ECAPVe3DEZUQxjHX58c/bgbzkqMLH5HNN8bi8QwJGA0mkAALCO1XgaAAAAQAzBGsUYB54xE5e+yQkA5KjA2I0fLJ35R1F3oMGrbgCAePLceqQAAACAyetoYOSerziHf/JngaGntnk1c+ZaZ67rVEcAwDpW42kAAGAIdTIzb/s6cNBMbHpVbgAYuferAACf6EulAQAgnjy3HikAAAB4C8UaGfnw3ktzh78cBRi/7j2lMn+0gT8AANaxGk8DAIAFjsnn18DYLX+kAgCTF/08AFAjcIxh7QEA8eS59UgBgPzmH8MiZowe5/noATPZe5YKAExc/mYAAAAolQYAAOtYjacBAOAxGDCyUhmZLwga3n2BSvivfRPgpg/Voma+5oJ+9f0MAIgnz61HCgDoLxhMqF41Hbvh/WoAMLrz8wAA4FwqDQAA1rEaTwMAoF5hBZzoznfzuT1msudUNQCQkwmZI905op756gkAxJPn1iMFAPItDsyl3vUbeeg7auEvXyNsDBwEADgCUCoNAADWsRpPAwCg3gEGwOSb//Frf1MNAEZv/4tSGT/ayKeNqtQPAIgnz61HCgCwyKtiVKH3o9n/gFr4ywmAQ/u3AgB8+i+dBgAA61iNpwEAAACEDs6qbG/k3q+rAYDcOrjR6C+d+VdlrtgPd58DAOLJc+uRAgDuCwNTqXftxq94mxoAjO78IuHPp/9SagAAsI7VeBoAAPUOMSDGbf6H+naohf/a4f++HaU0f/Thpo8q1Q0AiCfPrUcKALDAq2RWofZl9M4vqgHAxBVvJfz59F9aDQAA1rEaTwMAAAAIFZrV2U6/kb/Zyyd3jX8j936ttOZfnTljnbvOJQAQT55bjxQAwBhcjaGu7eRsfY3gT/qQbxPUtZbsd/n9BwCwjtV4GgAA5V+AmGS55mj09r9UA4Dxa95F+HP4v9QaAADiyXPrkQIA5QoXwr7k8zFw0MgV+5JP73mfRx78dqnNHz2WXI8B4AkAsI7VeBoAACxwTD67BuRa/XlD/3j7nlON3EuA+mevP7UKXysAIJ48tx4pABB+QWFi8dZ8bNsfqgHA2A3nEf4BPsGy3vKtNwDAOlbjaQAA5FscmEuN6nf0gJnsPUsNAIZ3XwAAAACl1wAAEE+eW48UAKhRgFmYbfPILjP8+BYzeveXzdjN55vRO79khvdcZOp8xroE9vHD93m/Ath7pmkcPaBr/oOHTPPZu4yMc/Qnf23kaIVcrnjoyatM87m9utuy0BKQHLfHAADWsRpPAwAg7sWpba7N5580Y7d9bN2gG7vxg0YAQXvbZe9PDtlrAYCEs+b+Dh3cacavPjd9fD2nmtG7/s40BvpUt6u5D/RVTi8CAOLJc+uRAgDlXHRFmKGc4Dax+Zz0EGn51Dux6WwzvOvfaxMmcrLeZM+pmWqTBRLk6IrKHA8+a0bu/aqZ3Hh6prHJ/QuGnr5VZ9scBahFHQEA61iNpwEAAABIEI088M1MAdIebnWBgJGHvuNUn/Z6ye/yNUKtT+JOlyTeePran3dUAAQIqDwEAADx5Ln1SAEAAMA1/F8Is7Nr8ecAuWBPpzB3eW309r9QCY2hp28xkz0b3MYFBKjMQR0gCgCwjtV4GgAA9QaAPOGfhJ+cE1BlI5QTH5N91Xge2n99/noN9JnctyMGAvLPQw2OgAAA8eS59UgBgPoCgEb4J4FY5W8HyM16kv3M+zyx+XWm0ejPHTzDT1yhMyYgIPdcVBl+Zd8AAOtYjacBAFBPANAMfwlF+YpgVY1QbtebN/iT9qM7v6hSp7UT/1pOykz6d3oGAlTmpKr6BwDiyXPrkQIA9QMA7fCX0Bm9828qaaJDfTvUwl/qJP1pBMXYTb+vOi75FoHaNxNqcFhcYw5j6QMAsI7VeBoAAPUCAB/hL8EmFwuKxdBsximf2J0+VXf4dC5HEmy2vd57c//9v8P4gIB6ecF6+mr9PwAgnjy3HikAUJ9F7yv8144A3P1ltXBrNZ9if+43E1terwYAci6B1v6Mbfuo2rhOAByOBKjNkdZcF90PAGAdq/E0AADqAQA+w18CpIqHj4f2b1UNWc0TJUfu+yfVsQEB9fABF5gAAOLJc+uRAgDVX/i+w1/Co4qXBpbv658QjJ0Om2d8Ta4j4GK+aW2G9l2rNraO+8iRANX5SpvHGF4HAKxjNZ4GAEC1ASBE+Mu9A2IwMqsxDhxcu2Jfx3DMGPqtbUce/LZujQYPmfFr3w0EcMKhrq461BMAiCfPrUcKAFQXAEKEv9w7QG4gZBWuHUymbO3lTxqtAZ7r555TTfOnj6nXqHnoHjO58Qy9cXYCG44EqM9b2bTebTwAgHWsxtMAAKgmAIQIfwlFuYFQNwOJ8f/lbn25Qr8lTOUugr5qMHL/P6uNM3V/gQBv8+dLF5r9AgDx5Ln1SAGA6gFAqPCX7WgaTWn6OnrATPaeqRasw7sv8FinfjO645NqYwUCqucHedcVAGAdq/E0AACqteAJ//zzKYGdGoQtn+wzvaf3TNM4esAjAMj+AgF5Q4726esGAIgnz61HCgCkCz82UyD8deZSDtlnCvcMMCB/SgijIyAgTJ11NBbTWAEA61iNpwEAUI0FTfjrzKOcrDfZc6oaAIS9PgIQEFOwxjJWACCePLceKQCgExxFLmbCX28O5et6Wp/+Jza90jQG+gIdAUhqAAQUuRaruG0AwDpW42kAACTGGecz4a87b3LBHi0AkAsJFRMIQEAxddfVYln2AQCIJ8+tRwoAxLtoCX/duZNL9WqFv/QztP/6ggBA6iIQ8CnV/elYG74iWOAc6+o/DTgAAOtYjacBABBmEaUtLtfXCX/9eZOb9XQMuQwn+7W3m9j8urUQdp1fnXZAgE4d9bUW07gAgHjy3HqkAEB8i5vw9zNncrve9iB3/V1uI1wOkwcCyjEPfjQbYt8AAOtYjacBABDXwiT8/czXUN8OtfAXaJD+Qphztm0AAdnq5EdbsW8bAIgnz61HCgDEs+gJf39zJZ/YXT/tt7ebuPwtJQr/l2rGOQEv1SL2UA45fgDAOlbjaQAAxGEKhL/Peeo38jf79iB3/V3OJQhp0DbbAgJ86qiafQMA8eS59UgBgPIvWsLf7xzJ2fquYd+pXbP//tICgMACEOBXTzZAFsN7AQDrWI2nAQBQbjMg/P3Pj3xfv1OQu7w2fs07Sx3+SeAAAf51ldQ69mcAIJ48tx4pAFBeIyD8A8zNQJ+Z2PQqNQCQKwnGYvijO/5Kbb9TYYnrBESjhzTdAgDWsRpPAwAgQMg07LdB+NvXLM3A1ntdrtWfGl623//v2WDkXgLrba9s/wcEhNFZ2ebdZjwAQDx5bj1SAKB8BkD4h5sTuVufFgCMbT0vqvBPQgAICKe3pOYxPQMA1rEaTwMAoFyLn/APOB9HD5jJ3jPVAGB494+jBAAJIyAgoO4cjggWCQwAQDx5bj1SAKA8C5/wDzsXw7svUAt/AYnG0f3RAgAQEFZ7RQa67bYBAOtYjacBAFCOhU/4h5+HsRvOUwOAsW0fjTr8k1DgSEB4HSa1L+szABBPnluPFAAofsET/uHnQE7Wm+zZoAYAw49vrgQASAgBAeH1WNbwl3EBANaxGk8DAKDYxU74F1N/+bqe1sl/E5teaRoDfZUBgDUIuOPTavVJrTNfEYxCMwBAPHluPVIAoJgAEpMl/IurvVywJzWYLL/+N7r9E1EYue2nzFEgoJLzaqsDAMA6VuNpAAAUE0KEfzF1F/OTS/Vqhb/0I5cStjXVWN4PBBSn07JoBACIJ8+tRwoAhF/ghH/4mreaqdysRwsA5CZCjUZ/ZQFA6gYEFKvXVu0W8TMAYB2r8TQAAMIubsI/bL07GabcrlcLAEZ3fqHS4Z/UDwgoXrfJXIR+BgDiyXPrkQIA4RY24R+u1mkmOdS3Qy381w7/P3N7LQBA6gkEFK/fNF37fB0AsI7VeBoAAGEWNeEfps7djHB05xfVAECOJHTbXtX+Hwgoh45D6goAiCfPrUcKAPhf0IS//xpnM8R+I3+z1zr8P3LvV2sHAFJnIKAseg4zDgDAOlbjaQAA+F1EhL/f+mYL/hfGIGfra4W/9CPfJrDZfpXeCwSUR9e+dQUAxJPn1iMFAPwtZMLfX21dTE++r68FAHIdAZcxVKkNEFAuffvSFgBgHavxNAAA/Cxiwt9PXZ1NbqDPyBX7tABAriToPJbI7ga33n4CASXTuQdtAQDx5Ln1SAEA/QVM+OvXdL0QyvJ/w49vUQt/uYeA3Esgy3br8B4goHx619QdAGAdq/E0AAB0Fy/hr1tPLSOTu/Vpffof23oe4d/2SRMIKKfuNdYPABBPnluPFADQW7iEv14tNYzreB9H95vJ3jPVAGB4948BgDYAkFoDASXVf4e5Or42MvwfAGAdq/E0AAB0Fi3hr1NHG2PK+t7h3Reohb+AROPofgAgJTiAgPKug6zrpf19AEA8eW49UgAg/4Il/PPXsN10NH+XQ/Zqh/+3fZTwTwn/ZM5G7/iMWr1T541bCQfTIQBgHavxNAAA8oUX4Z+vfklo+HqWk/XkpL3UILG89e/w45uDGa+vmoToFwgo97qw0QAAEE+eW48UAHBfqIS/e+1sDCjPe+XrelrhL18jbAz0AQBdjgAk8wUElH99JHO13jMAYB2r8TQAANwWKeHvVrf1jMbH/8kFe7QAQC4k5GOMVe4zDAScZuRrnlWuY5H7BgDEk+fWIwUA7INs5J6vqoXKeuEkkFHkwo9923Kp3vXqa/t/cinh2GtSxPiDQEDPBjP8WC/zk/HojI0OAADrWI2nAQBgBwBjt31MNVTSQojwt5uXToYmN+tJq6/t6xObzzGNwUMEjGPABIGAC08xI/d9gzlynKNOa0heAwDiyXPrkQIA2YNm5JEfqAXKegFE+GefkzTTktfldr3r1dnm/0Z3foFgyRksoSBg6Olbmaucc9W6rgAA61iNpwEAkDFs5GIyG09XC5S08CH8M85HF4MbeuZ21bmS/lpNkZ/d5ikEBExc/Grmqsv6sNEvABBPnluPFADIZmTj175bNVA6AQDhn20uspiXfGLvVGOX1yYufzOBohgooz/5rNrcpM3n6G1/zpwpzRkAYB2r8TQAALKFzmTPqV5Ni/DPNg9Zwr/R6DcTm1+nNl9yLkG27WruQ7X78g4Bm85mzgCAeIK4qJECAN2NdujZu9TCpNMnFsK/+xzYBLCcrd+pzq6vNQ/dT5gohUnrPPqFgFOYM6U54whAUekcYLsAQPfwGb3na6qB0hpEhH/3+reGRpaf5fv6rTXO87NcRyDLNnmP2zz6hICh/VuZOwUIAAACBHFRmwAAuhvX6PaPqwVKaxjJYerm809gUgomdTyAB/qMXLGvtc55fpYrCR7vW3Oc9LVW12b/g2byoperzVfrXI888n3mTkFnAEBR6RxguwBAdwAYfrTHi0GJWY1f9RtAgIJJJSEt1+pvDYFcP/dsMHIvgaRvnruvFZsaSfhPbHmD3ny13dehcWQ3c6ewtgCAAEFc1CYAgAymduwpbyYFBGSov4WJjW37qNpcjW/9PQLEovZlCv/Jjacxd0pzBwAUlc4BtgsAZAsgX4cpk0+oHAnINg/rhoxcq6H3TDUAGN79Y0JEKURa5833J39ZUxOXvpG5U5o7ACBAEBe1CQAgW/CMPPQdtWBJQr/9GQjINhetYdL6swR2e02df+890zSO7idElEIkmacQ4S9zPrTvWuZOae4AgKLSOcB2AYDsoTN+5a/pBUzb3yuToBq/6u2cE+BoXGNbz1Obn7Ft5xMgjvOQhH37c6jwH7v5I8yd4twBAAGCuKhNAADZAaDx3B4jf1tMwtrXMxBgMScvGp2crDfZs0FtbuRkwvYA43f7eUlqFir85RsgjQY3bUrqrvEMABSVzgG2CwDYmVpTLgrk6WtLrUABBNjNi3xdr7V+eX5eC5GBPgBA6VNksPDf8nrTfG4v86Y0bwk8AAABgrioTQAAdkEji2LN0C55rVrgpIUVEJB9buSCPWl1tH1dLiSUmB/P2eegU61Chb/8ea75/D7mTTn81/yu2f/dovKJ7XquAADgZnDBjI1zArqaerP/frXwF1iQSwl3CjNes1srwdbINe8k/D0Ef6J3jgB4DuEiuwcA7EwtWRTyHMzggIB1A1lu1mP7KT/t/RObzzGNQf6G3Kpzl5+DrQ3Cf9214TJ37W0AgCIT2vO2AQB3AJCFEszogIBUo5u4/C1qADC68/Op22k3Rn7vvHaCrQnCP4hWAQDPIVxk9wBAZxOzMfdghrcGAU8GWfQ2+1/ke4eeuV0t/NcO/z+znfrmOJwcbC0Q/sF0CgAUmdCetw0A5AcACcBgxgcEnGB8ozu/oAYAE5e/+YS+iwSbGLcdbA0Q/kF1CgB4DuEiuwcAdAAACNCrY+bwGzxk5G/2aX/Pt3195J6vBDXWzPuZ4xN5qG0Q/gXoP5AuAIAiE9rztgEA3YUbzAg5ErB2tr5tyK/3/uah+wEAh1AJpnk++ReiTwDAcwgX2T0AoAsAQY8EXC2XDa7vOQHyff31At3m/+Q6AqE+LVdpO4S/vn+UTR8AQJEJ7XnbAICfBRzMGOtZi3mVAAAgAElEQVQKAQN9Rq7YZxPy67135MFvAQCWn/6DaZxP/oVqEwDwHMJFdg8A+AEAjgT4q6vUVq7Vv16gW/1fzwYj9xIo2yevMo+H8Per7zLNPQBQZEJ73jYA4HchBzPKmh0JkLv1WYV8yt0XpY/xrb9H+Ft8+g+maT75l0KXAIDnEC6yewDALwAIyQczzLpAwNH9ZrL3TDUAGN71o1IYbZk+9aWNJZiWCf/SaBIAKDKhPW8bAPAPAECAbo2Hd/9YLfwnN55hGkf3l8Zs04K3DK8T/ro6LsOcZhkDAOA5hIvsHgAIt6iDGWjFjwTIIXutw//yp4QsJlj39wTTLp/8S6dHAKDIhPa8bQAgHABIiAQz0opCgJysN9mzQQ0Ahh+/pHSGWzbYCKZZwr+UWgQAPIdwkd0DAGEBAAjIV++RB7+tFv4Tm842jYG+UppuWSCA8M+n17LMY55xAABFJrTnbQMAxSzwYMZasSMBcsEercP/ciGhPMZY9bbBNMon/1LrEADwHMJFdg8AFAMAEh7BDPbqcytxxUC5VK9W+Es/Q/uuK7XxFgkYwbRJ+JdegwBAkQntedsAQHEAAATY1V5u1qMFAHITocbgodKbbxEQQPjb6bKIOQq5TQDAcwgX2T0AUPxiD2a4kR8JkNv1agHA6M7PE/4dLv4TTIt88o9GfwBAkQntedsAQPEAwJGA7nMw9MztauG/dvj/me3RGHCoT3uEf3cdhpqLMm0HAPAcwkV2DwCUZ9EHM+AIjwTIJ3atT/9yJKFMBluGsQTTHp/8o9MeAFBkQnveNgBQHgCQIAhmxGsQsC8OMxo8ZORv9loAIOcSlCF0yzKGYJoj/KPUHQDgOYSL7B4AKBcAAAEnz8fQ/uvVwl8gonnoviiN2AcwEP4n681HnWPuEwAoMqE9bxsAKKcBBDPmCI4EyPf1tT79j1/9DsL/xZP/gmmMT/5Raw4A8BzCRXYPAJQTADgS8OK8DPSZiU2vVAOAkQe/FbUZa32SJPzLu+615lirHwCgyIT2vG0AoNxGEMyoS3okQK7Vr/XpX+4hIPcS0DLGWPsJpik++VdCawCA5xAusnsAoNwAICETzLBLCAFytz4tABjf+r5KGHIe8AimJcK/MloDAIpMaM/bBgDKDwBhIeAdpvl8Sb4dcHS/mew9Uw0Ahnf9qDKm7AIBhH8ca91lbn22AQA8h3CR3QMA8ZhCMAO/uhwQIIGt9el/cuMZpnG0JGDT4Qp8Pg1c+g6mHT75Vw4yAYAiE9rztgGAeAAgqJGXAALGt/6eGgCM3Xx+5Yw5KzQQ/nGt8azzGup9AIDnEC6yewAgPnMIZugFQoCcrCcn7WkdAZCTCUMZZpm2E0wrfPKvrL4AgCIT2vO2AYD4AEACJpixFwQB8nU9rfCf2HS2aQz0Vdag04AjmEYI/0prCwDwHMJFdg8AxAkAVYeA8WveqQYAY9s/XmmD7gQAhH+867rTfBb5GgBQZEJ73jYAELdRBDP6gEcCmofuVwt/OYowtO+6WgFAME3wyb8WugIAPIdwkd0DAHEDQBWPBMjNetQO/28+xzQGD9XCqINqgfCvj6aa/d8tMqPYtscKAADxA0BQ4w9wJEBu16sFAKM/+Vx9jLr/QTOx5Q1qtUubA/nzTGmuFVHAVyqLPBxfxLY5AuAxgIvuGgCoBgBUBQKGntmuGmDSXxGmGXqbHPavzjoOrZ1u2wMAik5pj9sHAKplHMGCwNORgNGdn1cDADmS0M3cqvD/weacT/610FP7mgAAPAZw0V0DANUCAFm8IQOhcewpPVMcPGQmNp+jBgByLkG7mVXt9+aRXRz2588AXnUOABSd0h63DwBUDwBCQsDoHZ9RMx85Wz/t784urzcP3ac2trKCw9jW81Rr1qnO/M2/mh6RVdMAgMcALrprAKC6izvIkYCeDWbowI0qQTu6/RNqYTZ+9TtUxpTVJIt43/AjP1SrV6fgl9cI/+r6Q1bNAgBFp7TH7QMA1V7gISBg4rJfMY3BZ/MF7kCfkSv2pQWR7esjD/xrvvGU/LCyXCp5YtMr1OrVqb6Ef7W9AQDwGKyxdA0AVH+Rh4CAob4duQJXrtXfKYScXuvZYJo/fTTXeLKaY1HvG360R69eF77spL4I/+r7QlbtcgQgljR3GCcAUI+F7hsChh/5Qa7AHdt2/kkh5BT+cth66/tyjSWrMRb5vtGdX1CrV3udCf96eEJW/QIADsEaSxMAoD6L3ScEjO74pHvoHt1nJjeeoRZow7v+3X0sJT/0n5j2+PXvVatXKwAQ/vXxg0RL3Z4BgFjS3GGcAEC9FrwvCBi75Y+dQ3d414/0wmzjGaZxdJ/zWLqZYVn+f/yq39Cr2Yt/AiD86+UFWbUMADgEayxNAID6LXofEDBy/784h64csm/9FJrn57Gbz3ceR1ZDLMP7NL8xIfUm/OvnA1l1DADEkuYO4wQA6rnwtSFgaP/1TsErZ7NP9mxQAwA5mTCrscX8vpGHv6dWM8K/nh6QVf8AgEOwxtIEAKjv4leDgN6zTOPofqfgHXnwW2pBJl8jbAz0OY0jqxmW5X1DB3eayQtPyV07wr++6z+rlgGAWNLcYZwAQL0NQAMCRh78tnPoygV78hzyb207tv3jzuPIaoZlet/ojk/lqh3hX++1n1XLAIBDsMbSBADABPJAwPh17zGNRr9T8MqlelsDPO/PQ/uudRpHViMs3fuOHjATl77JqYaEP+s+q54BgFjS3GGcAABGIEawBgFXvNUqTCY2v840++93Dl25WU/e0E/ay02EGoOHnMeS1QzL9r6hAzdYXxFQvkLYfL7635Qo21zFOh4AwCFYY2kCAAAAx41poM+M3vnFTCfljd32sdwhIrfrTQI87/PoTz5Xu/BP5q155BGT6aZAvWcZOefC9YhNsj2e6+UZAEAsae4wTgCgXos5i3kPPbXNjN30ISOf8FuDeeKS16wFzfATl+cO26Fntp/Qd+t2XH4eeua23GPKUpsyv0euxih/kjnxHgGnmInLfsnIdRrqcHfEMs9PrGMDAByCNZYmAAAAsJ4xNZ97fO1uf3Lf+fXeZ/t/8ondJeg7tZEjCbbbr/r7m/0PmKGnbnb+dkbV68P+Zfc9ACCWNHcYJwCQfSFgGkq1Gjxk5G/2ncLc5TU5l4C5UZqbSC6FzHyHm28AwCFYY2kCAIRbSJjWC7Ue2nedWvgLMHBoGw2ztvxpAACIJc0dxgkA+Fs4mFLn2sr39V0+6XdqM371uXz651M7GvCoAQDAIVhjaQIAdA4pwttTXQb6jFyxr1OYu7w28sC/Yv4ezZ914GkdRDRnAEAsae4wTgCABR7S5OVa/S5B37FNzwbT/OmjAEBEYRJSa2xLx9sAAIdgjaUJAKCzSDCbbHUcu+3P1QBgfOvvEv6EPxrwrAEAIJY0dxgnAJAtuAh4nTrJJWg7fpp/8Z70Nv83vOvfMX/P5o/udXQfcx0BAIdgjaUJAMACD2lOExe/WgcANp5hGke5nG3IuWNb9fQKACCWNHcYJwBQz0VdhJnL9edtPuGv996xmz/Cp38+/aOBABoAAByCNZYmAAAAEAwGBvrMZO+ZKhAgJxMGG3cAk2VfWIdl1QAAEEuaO4wTAMB4QhqPnLi33if7LP8n17pvDPQBAIAJGgigAQDAIVhjaQIAAAAhAWDk3q/nBoDRHZ/E+AMYf0hdsK3y+hAAEEuaO4wTACjvwquiKTafvdtMbjzdHQJ6zzLaNyaqYp3ZJ9a1lgYAAIdgjaUJAIBRaBlF1n5GHvqeMwCM3vW3fPrn0z8aCKgBACCWNHcYJwAAAGQNbs33jW073xoCxm78IH/7D2j8mvNNX/H6DADgEKyxNAEA4l2YUZvq0QNm9I5Pm8meDZlAYOyWPzKNwWf55AcAoIHAGgAAYklzh3ECAABAkSAx1PcTM37de1IhQK4cOPzE5Zh+YNMvUhNsu1yeBAA4BGssTQCAci22uppf8/BDZnjvpUa+JTByz1fM8GMbzVDfHQQ/wY8GCtYAABBLmjuMEwAAAOoKHew32kcD3TUAADgEayxNAIDuCwCToEZoAA3UVQMAQCxp7jBOAABjq6uxsd9oHw101wAA4BCssTQBALovAEyCGqEBNFBXDQAAsaS5wzgBAIytrsbGfqN9NNBdAwCAQ7DG0gQA6L4AMAlqhAbQQF01AADEkuYO4wQAMLa6Ghv7jfbRQHcNAAAOwRpLEwCg+wLAJKgRGkADddUAABBLmjuMEwDA2OpqbOw32kcD3TUAADgEayxNAIDuCwCToEZoAA3UVQMAQCxp7jBOAABjq6uxsd9oHw101wAA4BCssTQBALovAEyCGqEBNFBXDQAAsaS5wzgBAIytrsbGfqN9NNBdAwCAQ7DG0gQA6L4AMAlqhAbQQF01AADEkuYO4wQAMLa6Ghv7jfbRQHcNAAAOwRpLEwCg+wLAJKgRGkADddUAABBLmjuMEwDA2OpqbOw32kcD3TUAADgEayxNAIDuCwCToEZoAA3UVQMAQCxp7jBOAABjq6uxsd9oHw101wAA4BCssTQBALovAEyCGqEBNFBXDQAAsaS5wzgBAIytrsbGfqN9NNBdAwCAQ7DG0gQA6L4AMAlqhAbQQF01AADEkuYO4wQAMLa6Ghv7jfbRQHcNAAAOwRpLEwCg+wLAJKgRGkADddUAABBLmjuMEwDA2OpqbOw32kcD3TUAADgEayxNAIDuCwCToEZoAA3UVQMAQCxp7jBOAABjq6uxsd9oHw101wAA4BCssTQBALovAEyCGqEBNFBXDQAAsaS5wzgBAIytrsbGfqN9NNBdAwCAQ7DG0gQA6L4AMAlqhAbQQF01AADEkuYO4wQAMLa6Ghv7jfbRQHcNAAAOwRpLEwCg+wLAJKgRGkADddUAABBLmjuMEwDA2OpqbOw32kcD3TUAADgEayxNAIDuCwCToEZoAA3UVQMAQCxp7jBOAABjq6uxsd9oHw101wAA4BCssTQBALovAEyCGqEBNFBXDQAAsaS5wzgBAIytrsbGfqN9NNBdAwCAQ7DG0gQA6L4AMAlqhAbQQF01AADEkuYO4wQAMLa6Ghv7jfbRQHcNAAAOwRpLEwCg+wLAJKgRGkADddUAABBLmjuMEwDA2OpqbOw32kcD3TUAADgEayxNAIDuCwCToEZoAA3UVQMAQCxp7jBOAABjq6uxsd9oHw101wAA4BCssTQBALovAEyCGqEBNFBXDQAAsaS5wzgBAIytrsbGfqN9NNBdAwCAQ7DG0gQA6L4AMAlqhAbQQF01AADEkuYO4wQAMLa6Ghv7jfbRQHcNAAAOwRpLEwCg+wLAJKgRGkADddUAABBLmjuMEwDA2OpqbOw32kcD3TUAADgEayxNAIDuCwCToEZoAA3UVQMAQCxp7jBOAABjq6uxsd9oHw101wAA4BCssTQBALovAEyCGqEBNFBXDQAAsaS5wzgBAIytrsbGfqN9NNBdAwCAQ7DG0gQA6L4AMAlqhAbQQF01AADEkuYO4wQAMLa6Ghv7jfbRQHcNAAAOwRpLEwCg+wLAJKgRGkADddUAABBLmjuMEwDA2OpqbOw32kcD3TUAADgEayxNAIDuCwCToEZoAA3UVQMAQCxp7jBOAABjq6uxsd9oHw101wAA4BCssTQBALovAEyCGqEBNFBXDQAAsaS5wzgBAIytrsbGfqN9NNBdAwCAQ7DG0gQA6L4AMAlqhAbQQF01AADEkuYO4wQAMLa6Ghv7jfbRQHcNAAAOwRpLk+FdF1w18sA3Df+oARpAA2gADbRrQDIiljxjnJYVGLvxQ49NXvgywz9qgAbQABpAA+0akIywjBXeHksFAAAWfPuC53c0gQbQQKIBACCWNHcYJwDAQk8WOs9oAQ2ggXYNAAAOwRpLEwCABd++4PkdTaABNJBoAACIJc0dxgkAsNCThc4zWkADaKBdAwCAQ7DG0gQAYMG3L3h+RxNoAA0kGgAAYklzh3ECACz0ZKHzjBbQABpo1wAA4BCssTQBAFjw7Que39EEGkADiQYAgFjS3GGcAAALPVnoPKMFNIAG2jUAADgEayxNAAAWfPuC53c0gQbQQKIBACCWNHcYJwDAQk8WOs9oAQ2ggXYNAAAOwRpLEwCABd++4PkdTaABNJBoAACIJc0dxgkAsNCThc4zWkADaKBdAwCAQ7DG0gQAYMG3L3h+RxNoAA0kGgAAYklzh3ECACz0ZKHzjBbQABpo1wAA4BCssTQBAFjw7Que39EEGkADiQYAgFjS3GGcAAALPVnoPKMFNIAG2jUAADgEayxNAAAWfPuC53c0gQbQQKIBACCWNHcYJwDAQk8WOs9oAQ2ggXYNAAAOwRpLEwCABd++4PkdTaABNJBoAACIJc0dxgkAsNCThc4zWkADaKBdAwCAQ7DG0gQAYMG3L3h+RxNoAA0kGgAAYklzh3ECACz0ZKHzjBbQABpo1wAA4BCssTQBAFjw7Que39EEGkADiQYAgFjS3GGcAAALPVnoPKMFNIAG2jUAADgEayxNAAAWfPuC53c0gQbQQKIBACCWNHcYJwDAQk8WOs9oAQ2ggXYNAAAOwRpLEwCABd++4PkdTaABNJBoAACIJc0dxgkAsNCThc4zWkADaKBdAwCAQ7DG0gQAYMG3L3h+RxNoAA0kGgAAYklzh3ECACz0ZKHzjBbQABpo1wAA4BCssTQBAFjw7Que39EEGkADiQYAgFjS3GGcAAALPVnoPKMFNIAG2jUAADgEayxNAAAWfPuC53c0gQbQQKIBACCWNHcYJwDAQk8WOs9oAQ2ggXYNAAAOwRpLEwCg+4Kf2nKOWXiyJ9+/Pf9m2hdWUb9PXfamfPsitXj0e+r7M33Nue7jeuJCM9l7lvqYipqj1u3O3v6nznWZf+gb/mrSe5bzuGQ9TV36Rn9ju7D7um6tMT+n1wsAiCXNHcYJAKQLv9UUlgceMnkfs7d8uBSGJ+ab97Hw6HfV90WCLs9j7t4vqY+pVQOF/NxzqlmZOupclpWR/d5qMnXxq5zHJQ2nr3unt7EVMlcVhQ4AwCFYY2kCAGQDgJkb35fL7KTx0k/vKNzwpi55jVldmsm1L6vzo2Zq09nq+5IXAFZGn1YfU9FBMnvH/8k1VwBAtvVd9DyXefsAQCxp7jBOACC7QUiA53usmukr31ZoSC08+p18u2CMmX/oH73sQ14AkB2b2fb7XsZWlEEvDz6ca74AgOzru6g5Lvt2AQCHYI2lCQCQ3SCmr32HMWY1lyEv7OstLKCmLnq5WZ0fyzX+1ZkBM9l7ppd90ACApSM7vIytCJOevu5dueZKGgMA2dd3EXMcwzYBgFjS3GGcAICdQSw9e0MuU15dnPZy+DyLkcw/+NVcY5fGPv/OrgEAAmhFH2XJMhdZ3rP4zNW55wsAsFvfWealbu8BAByCNZYmAICdQUi4mJWlXMY8/8BXwn9K3XiaWZ0+lmvcKxOHzeTG07yNXQcAjCnyKItWOExt+UVjlhdyzZc0BgDs1rfW/FWpHwAgljR3GCcAYG8Qi09dmsuYVyaPmMmeDd6CtJP5zN3917nGLI3ndn7S65i1AKDIoyydau/y2vzub+eeL+kAALBf3y7zVeU2AIBDsMbSBACwNwj5Hr1Zns9l0LPb/8RrmJ5gSD0bzMr4s7nGuzJ6wDu0aAGA7GghR1m0vgYmR2tmGrnmK2kMANiv7xPWjtacRtwPABBLmjuMEwBwM4iFJ/4j8Vin5+Wj9wUDgNkdf+40xtZGs9v/2Pt4NQGgiKMsWsExt/NTraXP9TMA4La+teayCv0AAA7BGksTAMDNIKY2v9bIoeY8j+lr3u49VMWAlpt78gzTLDceDTJOTQCQHZ69PeBRFsVPeHnnq3WyAQC39V2F4NbaBwAgljR3GCcA4G4QcjW8PI/Fpy7zHqwz2z6UZ4hrbWdu/oD3cYpZaQPA8rH7g4xby2iln5kb3pt7vlo7AADc17fmvMbcFwDgEKyxNAEA3A1CroYnV8VzfizPGbkyn09zWD56j/PwpOHS83d7HV/rvmsDgIx/+tpzg42/dV9cf877NdP2yQYA3Ne36xxWrR0AEEuaO4wTAMhnEHJVvDyP+Uf+xVtAzVz/7jxDW2s7s/W3vY2v3Sh9AMDi01cEG3/7/tj+LjfHyfsV0/YJBwDyrW/bOazi+wEAh2CNpQkAkNMges80cnU814d8N9/Xd+uX+re5Dmut3VL/LUHD0wcAyLc15HyNGIx5Yc+/5ZqvTo0BgJzrW/Hcjhg02GmMAEAsae4wTgAgv0HI1fHyPGbv+IR6QE1f9TZjVlfch7W6Yqav/nX1cXUymOQ1LwAgXwnc9c2g+5Hsj9WzgOTciPt8pbQEAPKvb6t5rCAwAAAOwRpLEwBAwSA2nmbkKnmuj+XBXeoBtfj05a7DWWsnl6ENbXy+AGB1ZtDbURatGs3d/blc85XWGABQWN8VDHUb3QIAsaS5wzgBAB2DkKvk5XnMXP9baoH7wt+SF92Hs7Jopi//ZbXxZDUbXwAghfB9FcOs+5j2PglqHw8AQGd9p81bHV4HAByCNZYmAICSQcjV9kYPOHv4Yt+1aoGb9yJFi/s2qY3FxiB9AoB8t95mLCHfO3Pz/3bWTbeGAIDS+q7xUQAAIJY0dxgnAKBnEHK1POfHyqKZ2vK63CE1dcmrc12gaHVpVmUcLgHqEwBkXuQ79i7j8t1m6fCtzrLp1hAA0FvfvnVQ1v4BAIdgjaUJAKBrEMuN3d08OfX/5cJCeU1gfve3UvvP8h8Le36Yewyu++AbAOQ79q5j89VO/tRiVpezTI3TewAA3fXtSwdl7hcAiCXNHcYJAOgaRJ7Duauzw2ay9wznkJq66OdznUm+ujBh5AhCUWbkGwDkO/ZyfkRR+9dpuwt7L3AK9qyNAADd9d1pDqv+GgDgEKyxNAEA9A1Crp7n+pi76zPOATX/wD+4bnat3fwj/8952xom6B0AjDELe35Q6D621mnqopcbgS6fDwBAf323zmEdfgYAYklzh3ECAPoGIWf0uz5Whp90Cyj5KuLUUdfNmtXZISOBVKShhQAAuXTzZO9Zhe5nUuO5+/7Web6yNgQA9Nd3Mn91eQYAHII1liYAgB+DkKvouT5mbjrPOqDkyEGex/z9f2+9TW0DDAEAUqO5e75Q+L5OXniKWRk7mGfKMrUFAPysb23tl7k/ACCWNHcYJwDgxyDkKnquV+KTS/jaGYKEyTOZAqHTm1amnjeTG0+33KZ+3UIBwMroU8Xv661/0Gkq1F8DAPR1arc2498+AOAQrLE0AQD8LVC5mp7TY3XZTF/+vzKHlNz3Ps9j7q7PZt6WT/MLBQBSK7lNss996db30k9/kmfKMrcFAPyt725zXJX/BwBiSXOHcQIA/gxi7SteK25X5FvY+6PMAbXcfCxzILS/UQ5DT/acmnlbPk0tJAAsHbm9sH1eu0+DWW2fCi+/AwD+1rfPtVCmvgEAh2CNpQkA4NcgFvZd5GTsq/PjRr7W180I8nztUAY2u+NjXbfRbQxa/x8SAOTPM9NXvqWQfXfVhIuQAAC/61tL+2XuBwCIJc0dxgkA+DUIubqfXF3P5TF37990Dail5+5y6XqtzfLQXiMno5XFfPIAwOrSjJHrKNg8Fp7sCb7vU5vOtr5S48rkEZvdOuG9AIDf9V2WteNzHACAQ7DG0gQA8G8QcnU9l4ec2Lfewp6+7l0u3R5vM3vrH6zb/3rb9vF/uQBgYdLY1nl1cdpMbXpF0BrMP/CV4/XP9MPyvJErRLo+AAD/69vHWihTnwBALGnuME4AwL9BrF2f3/GCL7O3fDg1oJYO3eiaC2Z54MHUfosyn7wAMH3Fm42x/Nu6BHKw/ZUbRll+ml/su9pYQ0OLKgAA/+s7mH4KuiERAOAQrLE0AQDCGIRcZc/lsfTTOzoG1PSVb3X+mqGMY+bG3+3Yb5FmlhcAZOy2fxJZmThsJns2BKnF7Hb7b2vIPAEAYdZokdov87YBgFjS3GGcAEAYc1m77OvskAMDrJrpK992UkAtPnWpQ18vNFk6suOk/spgQBoAMHv7n1nXRe7iGGL/l4/eZzW25HoFAECYNRpCAzFuAwBwCNZYmgAA4cxFrrbn8ljY13tCQE1d+npjlhdculo7RD597TtO6K8spqQBAJMbTzOrM4NWtZFg9l2D6WvebjUmefP8/V9eGxcAEG6N+tZBjP0DALGkucM4AYCA5rLxdCNX3bN9vHCy2tnHQ0quEeD6KOMtcRNTVAGAC1/mdNKcBHQyDh/Ptkds5JsjUxe/EgAo6O/ePjQQa58AgEOwxtIEAAgIABe+zMhV91we8ilQDGTq4ldZf43s+PZWljr+OaEsxqQFAFOXvcmY1eXju53lh8WnLvMGAFOX/IIxy3NZhnH8PYtPX3l8PBwBCLtGy7IeyjIOACCWNHcYJwAQ2Fx6TjUrY33HjT7rD3L2uHybYOHR72RtctL75FNoWUyl0zi0AED6liv9WT2W58zUJa/xUp/5h//Zaijy5pmt7zk+FgAg8BrlqMNx7claAgAcgjWWJgBAeHORq+8FfyzPG/lk3Cl4y/KaJgDM3vZR6xLLNzXUayHnJEwfsxpL+1f3AIDwa1RdBxFDBQAQS5o7jBMAKMJcTjFyFb6Qj4Un/kM/3JRNTRMA5Kt9tudbrM4MGDmJUNP8Z+/4uPU0z933tyeMAQAoYo2yzWQdAAAOwRpLEwCgmIUuF/gJ9Vg7iXDza08IlWRxl+lZFQAufJmZ3/VN6xLP/uQvVOu0PPiI1RjkksZyueDWeQEAilmjrXNQ558BgFjS3GGcAEBx5iJX4wvxkPMGYjAwbQCQ+zCYlSWrEi83HlWr1cx1v2m1bXlzp5MRAYDi1mgM68b3GAEAh2CNpQkAUJy5yFXefD9W50eDX+/e1ZC0AUDGsdS/zbrEM1t/WwUC5CItsB8AABCySURBVDK+to+Z63/rpG0DAMWtUVctV6kdABBLmjuMEwAo1lzkqnw+H/MPff2kQCmrOfkAgJltv29d3sWDW3PXbGrLOcasLFpte3n4iY7bBQCKXaNlXS+hxgUAOARrLE0AgGLNRa7KZ3sDm6ypsnZSW++ZHUMllHnYbMcHAMjtjlcm+rOW7IX3rSyZqUvfkKtu87vtv645d++XOm4TACh2jdpouIrvBQBiSXOHcQIAxZuLfOL08UgLlLKalB8AeJmZf+gb1uVdeOz7HcM4U+02nm5WZ5tW21zv1sQAQPFrNNO8K38rpizbBAAcgjWWJgBA8eaydmc/y5PVuqWLfOrV/kqbb0PyBQBTm19rfe+E1bkRM+l49GTuzr/qNj0n/f/igS2pwAEAFL9GfWu/zP0DALGkucM4AYBymItc+lXzMXfnZ1IDpaxm4wsAZH8XD15vXd65uz/vVMPlocettzV93btStwUAlGONlnXd+B4XAOAQrLE0AQDKYS4uobFeyizs/XFqoPg2DNf+fQLAzE3nrVeujv+3MnLAuoYzN/xOx77We3G5uWfd7QAA5VijrrqOvR0AEEuaO4wTACjeXFzuYb9eoKz9n1zbPueJbKGNyycAyL643INh5uYPrBvO7TVaevbGrlPT/oZuRxoAgOLXaPs81+l3AMAhWGNpAgAUbC5yydrRp9szQeX3xQObrcKraFPzDQDzD/yDdV2XDm/PXMO1uxBansuxujhlpi56+brbAAAKXqMVPbkv63oHAGJJc4dxAgDFmsvcnZ+2DqXMDeT2v1e8ed1wyWoCId7nGwDkVsq2t+U1qyuZa7iw5weZpyZ54+L+i7vODwBQ7BoNof0ybwMAcAjWWJoAAAWay8bTjNzm1+djse+argFTFvPxDQCyn4vPXGVd7oUne7rXsPdMI1ddtH1MX3tu174BgALXaM0//cuaAQBiSXOHcQIAxZnL3L1/Y5sX9u+XT7DX/EbXkCkDBIQAgJkb3mtdw7XD9JtesW4N5e/4to+s9x0AAIpbo2VYF0WPAQBwCNZYmgAABZlL71lmdWbQNjOc3r90+NZ1w6tog0m2HwIAZFsrI/ut6zh//9+vW0P5xoDtY+6uz67bZ1IXAKCgNcqn/zV9AgCxpLnDOAGAYsxFrtEf8tHpJjNJwJTlORQAuBx5Wbuw0oWndAxs+aaA7WN1YcJM9p7Vsb/2+QAAilmj7fNQ198BAIdgjaUJABDeXKY2vcLIleZCPpaevztT2BRpcqEAYK3+i9PW5Z/d/kcda7h0+Dbrvhb29Xbsq1P9AYDwa7TTPNT1NQAgljR3GCcAEN5cXG4UkyTMysRhszp9LPnV6nnmpvdnDp0izC4UAMi+yaV3bR/LR+85qX7TV/yKkW8K2D5szssAAMKv0SL0X9ZtAgAOwRpLEwAgrLlMXfIaIyeVuTxeOBntbDN91a863UFwefCRkwKsTKYTEgDk0rsuj/bgXnjiP6y7sZ0HACDsGi3TmijDWACAWNLcYZwAQFhzWdj7I+vASBos7L3geIDLIX2Xx+xtHz3eRxnMpXUMIQFAtiuX4LV9LD516fH6yQV8Vhcmbbswcu2H1v3u9jMAEHaNdpuPuv0/AOAQrLE0AQDCmYtcmtf6QjRJvMg96i970/HgmN3+J8n/WD2vDO8zkyknsxVtbKEBYO7uz1nVbu3NconlS35hbR7m7vs76/ar82PWdxkEAMKt0aLXQBm3DwDEkuYO4wQAwpnL4v5LrAMjabB48Lrj4b9mEnIJ4annkv+2ep694xMn9lWSrzuFBoCpi37e6RP8/CP/vAZRK+PPWtVd3pzpokJt8wEAhFujZQzgoscEADgEayxNAIAw5rJ2spjldeJb02X6uneeFNrzD/9T61sy/yzBNdlz6kn9FW00oQFA9ndh30WZ65a8UU7ClG8EuDymr/4167oDAGHWaNH6L+v2AYBY0txhnABAGHNZ7LvaJS/W2iwfvbdjaMgJhWZ53qnfubv/umOfRZpQEQAgJ/W5PFy+xrk88KBTzQGAMGu0SO2XedsAgEOwxtIEAPBvLtNX/7rTV8WSYJq99SOpweFybXvpd2XqeTO58fTUfoswpCIAQPZzefDhpNRen+d2/qVTvQEA/2u0CL3Hsk0AIJY0dxgnAODfXJb6b3EOlpXRp9YNjZnr3+3cd7fL24Y2qKIAYO7Ov3KuYdaGcsRgsveMdecyrd4AgP81mlZ7XudmQA6xGk8TAMCvueQJaAmXubs+0zU0lpuPZc2hE963Ojtk5ES4sphcUQAgwexyJ78Titnll4W9P3auMwDgd42WRf9lHQdHAOLJc+uRAgB+zWXpubu6REP6f8vNgrIcps/zCfaFM9r91iCrsRUGAHIy4N4L0ici9/+smukr3wYAtNWx04mtWbXC+8KtWQDAOlbjaQAA+FtIMzed12Z5dr/OPyxfN8swvo2nm9XZYbvOX3z36vy4mbr4ldm2k2UsOd5TJABMX/U2p6srZin68tH7ctWXIwAZ1kAO3WVaYzXuHwCIJ8+tRwoA+DOXPCeXrS5Om6mLX5U5OBYe+36WLOr4HmlbBhMsEgBk/yWofTzyXncBAPC3Rsug+7KPAQCwjtV4GgAAfsxl9tbzc2WJ7QVj5CqBZnXZaZtrsLH5tYVDQNEAIEGt/ZAjM1n+jLNeCAAAftboejXn/16qOQAQT55bjxQAeEnoeov+FLMy/KR7lqwum+nLf8k6kPN828AWOPRq9VL9iwaAyY2nGTkxUvOx8PgPreexvbYAwEsaaa8Nv/uvDQBgHavxNAAA9BfQ7B0fz5UhS8/e4BQaMzd/wH27ywsn3GugCGMtHADkZMA9P3Cv4Ukt5eS/tzjNZWv9AQD9NdpaX35ev74AQDx5bj1SAGB98VubQ8+pZmXs4ElRYPOCfHXQersvnqS0MvaMzaZOeG/rne5ct5+nXRkAYO2SzasrJ9TF9Re5Y2OeeiRtAQDlNVrjE/oSTdk8AwDWsRpPAwBA11zm7vqsa16stVs+9kCu0HC5Q93xAa8s5fq6mo2pdHpvGQBAxrX03J3HS5Lnh9kdH8s1l0mNAADdNZrUledsdQUA4slz65ECANkWQSaz2Hj62iV2c4XGbX+YKzSmNr3CrC5OOQ9h8eDWXNvPVKeUT2BlAYDZ291utdxa9NXZppFzCvLUI2kLACiu0RTtJbXm+eRaAwDWsRpPAwDgZMG7msD8/V9uzQDrn1fG+tZuM+u6/aTdwr5e622/1GDVTF97rkpwJePJ+lwWAJA7Ja7ODLxUEoefFvb8m1oNAQC9NZpVi7zvpZoDAPHkufVIAYCXhJ5n0a/dW3626RAVLzWZu/vzKqExfdWv5rqozdKR7SrjsK1naQBATgZ89DsvTYztT6srZvryX1arIQCgs0Zt9cj7X6g7AGAdq/E0AAB0zEWu2pfnIV8/c71ZTCejWj56T57hmJkb3qsWYJ3G1+m1MgFAnusqyDkEnfbP9TUAQGeNuta/7u0AgHjy3HqkAEB+c5FL6a7Oj+UK3Pld31QNjbx/x857+VoX0ywTAMj45UiIy0P2w2X/09oAAPnXaFpteb17bQEA61iNpwEA0H0BdDOJhUe/55ITx9usLs2aqUt+QTU05O/YK1PPH9+Gyw8z2z6oO6YuJ2CVDQCmr3m7kfC1+/cPaif/JboDAPKv0aSWPNvXEgCIJ8+tRwoA2C+IVhOZ2vxaI5fSzfNY2HeRl6DN+2cJuc1w6776/rlsAOB7f7P2X1UAWBk/ZFZG9pf+3/xD3wi6DrLqItT7AADrWI2nAQCQDwAWnrgwT/avXb9/+oo3ezEYgROzPJ9rfLPb/8TL2DqZFwDQWYtVBYBcwgzYuAyXye60XkK9BgDEk+fWIwUAOptulsW1dqJYzoBdOnSz14BdfObqXFa5MnpA5auJWeoJAHTWIgCQS8K5GwMAH3rMOlhoEEcFAIDOppslsBYPbMltLjNb3+MVAGau/63cY5zb+Zdex5jUGgDorEUAILeEc3UAAAAAcaS5wygBgM6mm4RS2vP0lW81ZmUpl7EsDz4cJFjlb/l5HisT/eontnWqKwDQWYsAQB715m8LAAAADtEaRxMAoLPpdgqo1tcWD16f21nkq3qtffr6ee7OT+ce69w9X/Q+VgCgsxYBgNzyzdUBAAAAxJHmDqMEADqb7nphPH3NucbkvGOcnAE9eeEp3kN1bT96zzCrcyO5THB1+pjqhYo61RcA6KxFACCXdHM3BgAAAIdojaMJANDZdDsFVPLa0mG3C8S0OtHcvV8KE/4vfvderk2f9yFBlNTAxzMA0FmLAEBe5eZrDwAAAHGkucMoAYDOppsWcHLSXt6HfBqf7D3Ta5i2jz/PpW2T/ZVxy90G2/vW+h0A6KxFACBRYDHPAAAA4BCtcTQBADqbblqoLR+9N7cLze/+jrcQTRu3vL50+Nb8Y9/1r97GDgB01iIAkFu2uToAAACAONLcYZQAQGfT7RSkMzd/IJeRrDVenjNygZ5O/ft+TS7tm/exujBppi55tZfxAwCdtQgA5FVtvvYAAADgEK1xNAEAOptupzCeu+szRswgzz+tW/52Gl+W1+RcgDzjl7YzN77PCwDIyZXOY9vzQy9jylJT3++Zuen9znXxehnb3rOcx+U8zznXn8t2Z2//s8pqK4t2JSPiSDNGaV0BACA7AGRZLLyHeqIBNFAlDQAA1rEaTwMAALOqklmxL+gZDehqAACIJ8+tRwoA6C4WzId6ogE0UCUNAADWsRpPAwAAs6qSWbEv6BkN6GoAAIgnz61HCgDoLhbMh3qiATRQJQ0AANaxGk8DAACzqpJZsS/oGQ3oagAAiCfPrUcKAOguFsyHeqIBNFAlDQAA1rEaTwMAALOqklmxL+gZDehqAACIJ8+tRwoA6C4WzId6ogE0UCUNAADWsRpPAwAAs6qSWbEv6BkN6GoAAIgnz61HCgDoLhbMh3qiATRQJQ0AANaxGk8DAACzqpJZsS/oGQ3oagAAiCfPrUcKAOguFsyHeqIBNFAlDQAA1rEaT4OxGz/8aJXEyr5gvmgADaABPQ1IRsSTaIzUqgLjt33sfhaL3mKhltQSDaCBKmlAMsIqVHhzPBUYu/NLt1dJrOwL5osG0AAa0NOAZEQ8icZIrSowvOuCq1gseouFWlJLNIAGqqQByQirUOHN8VSgeezgdyc2vcpUSbDsCwaMBtAAGsivAckGyYh4Eo2RWlWg0Tj8O2O3/ikAcGH+xYLhUEM0gAaqpAHJBskIq1DhzfFUYN++fT831LdjbLJnAxAABKABNIAG0MALGujZYCQbJCPiSTRGal2BRqP/X8a2f5yFz8JHA2gADaCBNQ1IJkg2WAcKDeKqgDHmZ5tHdt04cekbWfwsfjSABtBAzTUgWSCZINkQV5oxWqcKrP0p4Kmtd0/2nsXir/nir9LfMNkX/iaPBiw10HuWGXpq690c+neK0ngb9ff3/9eRPRffPXHxq4EAIAANoAE0UDMNiPdLBkgWxJtkjDxXBYZ3b/zw+BVvm4WcLcm5ZmaBPtAHGqiOBsTzxftzhQeNq1EBc+WVPzt6x6cumLj0jcss8uoscuaSuUQDaKBVA+Lx4vXi+dVIL/ZCrQJ9fdv+y9g9//eTY7ecv2v8ql+fnNjyhqXJjWdwaJBP+2gADaCB2DSw8QwjHi5eLp4u3i4erxYYFejo/wPnmgEh9KUboAAAAABJRU5ErkJggg==;" vertex="1" parent="1">
          <mxGeometry x="175" y="885" width="42" height="42" as="geometry" />
        </mxCell>
        <mxCell id="DG2oI-M4Yr5_Z9j_e3_I-79" value="Transformation" style="text;html=1;align=center;verticalAlign=middle;whiteSpace=wrap;rounded=0;fillColor=#fff2cc;strokeColor=#d6b656;" vertex="1" parent="1">
          <mxGeometry x="221.5" y="885.0000000000001" width="90" height="30" as="geometry" />
        </mxCell>
        <mxCell id="DG2oI-M4Yr5_Z9j_e3_I-82" style="edgeStyle=orthogonalEdgeStyle;rounded=1;orthogonalLoop=1;jettySize=auto;html=1;exitX=1;exitY=0.5;exitDx=0;exitDy=0;entryX=0;entryY=0.5;entryDx=0;entryDy=0;entryPerimeter=0;curved=0;" edge="1" parent="1" source="DG2oI-M4Yr5_Z9j_e3_I-70" target="DG2oI-M4Yr5_Z9j_e3_I-66">
          <mxGeometry relative="1" as="geometry" />
        </mxCell>
        <mxCell id="DG2oI-M4Yr5_Z9j_e3_I-84" value="Manual&lt;div&gt;Entry&lt;/div&gt;" style="edgeLabel;html=1;align=center;verticalAlign=middle;resizable=0;points=[];" vertex="1" connectable="0" parent="DG2oI-M4Yr5_Z9j_e3_I-82">
          <mxGeometry x="0.2163" y="1" relative="1" as="geometry">
            <mxPoint x="-3" y="12" as="offset" />
          </mxGeometry>
        </mxCell>
        <mxCell id="DG2oI-M4Yr5_Z9j_e3_I-83" style="edgeStyle=orthogonalEdgeStyle;rounded=1;orthogonalLoop=1;jettySize=auto;html=1;entryX=0;entryY=0.5;entryDx=0;entryDy=0;entryPerimeter=0;curved=0;" edge="1" parent="1" source="DG2oI-M4Yr5_Z9j_e3_I-70" target="DG2oI-M4Yr5_Z9j_e3_I-65">
          <mxGeometry relative="1" as="geometry" />
        </mxCell>
        <mxCell id="DG2oI-M4Yr5_Z9j_e3_I-85" value="Manual&lt;div&gt;Entry&lt;/div&gt;" style="edgeLabel;html=1;align=center;verticalAlign=middle;resizable=0;points=[];" vertex="1" connectable="0" parent="DG2oI-M4Yr5_Z9j_e3_I-83">
          <mxGeometry x="0.0554" y="5" relative="1" as="geometry">
            <mxPoint as="offset" />
          </mxGeometry>
        </mxCell>
        <mxCell id="DG2oI-M4Yr5_Z9j_e3_I-86" value="&lt;span style=&quot;color: rgb(0, 0, 0); font-family: Helvetica; font-size: 12px; font-style: normal; font-variant-ligatures: normal; font-variant-caps: normal; font-weight: 400; letter-spacing: normal; orphans: 2; text-align: center; text-indent: 0px; text-transform: none; widows: 2; word-spacing: 0px; -webkit-text-stroke-width: 0px; white-space: normal; background-color: rgb(251, 251, 251); text-decoration-thickness: initial; text-decoration-style: initial; text-decoration-color: initial; display: inline !important; float: none;&quot;&gt;Payroll Report&lt;/span&gt;" style="text;whiteSpace=wrap;html=1;" vertex="1" parent="1">
          <mxGeometry x="373" y="960.43" width="92" height="30" as="geometry" />
        </mxCell>
        <mxCell id="DG2oI-M4Yr5_Z9j_e3_I-87" value="" style="shape=image;verticalLabelPosition=bottom;labelBackgroundColor=default;verticalAlign=top;aspect=fixed;imageAspect=0;image=data:image/png,iVBORw0KGgoAAAANSUhEUgAAANMAAABVCAYAAADT7tEcAAAAAXNSR0IArs4c6QAAAARnQU1BAACxjwv8YQUAAAAJcEhZcwAAFxEAABcRAcom8z8AACAVSURBVHhe7V0HdFzVmb4jWbbBGEJJYnYTSNndAAmQShpZSCPZQLLZTZxCc2Jr3psZNTdCnKbkUGzJFnLBYGOCg40tvfdmVFwxgdiwCyEcWkJJII26xoAdSZaLbEuz3/e/+55Go6myjGXzvnPumdHc/t//u/9/y3tSAUY2Xq5Vp+ycqy7MFfYgdM1T5ydr1VidLUCANyf6VqhxW+eqcR2z1Xt21qub9zaqFV31buisV08lb1TJnGGxSvYtUMmuueoBL1/vfLViZ52ajTJPZNl9CLq6AAGOLnTXqQ/33ai+DMvy830L1FYQYSuItF3IcVN/6AVJkCZv6J6H9AtT8t7sE+wVxG/d2yDlV7DOjnr1Xt2MAAGOTCSXqlNgaebsvUHdBuvRKRYFBNjXqJL7EfjZnYEoQw0kWGrZQjbUibi/7p+vlnTWqauSywPXMMARgleuU29PLlMXwhLduH+hejm5yLUcINQg5T/UwSMqiCSWS4i2QD3fVad+gr8vxPrsWN3sAAFGFuBizQJpHqPi0l2jEtNapCt5MWFPg0sCht34nilNoWEX2nIAbWLbSPADC9TdXfOUoZsfIMDhRXe9mnBgkZoE4vxJ3CoEKm4+940ko3Iz9MBqeeue9CDl1KvXkWcHrVumNHTlSDqvvLx160/m6wFJO+eqp/tuUpf88So1XncrQIA3DslaVYJ10A/33KD+QKXkbE9FTlfc1EACcZOAhKOFIAH4iXK2QaGvxeeP00PHHPWdXXPVx7bPUZ/C+ut7u+cNTgOLuBChh9aLZYrlQR35NjOQR6ydpEcf9s1Xm/FbRHcxQIBDD8zsk3oXqie5HiI5MimqF0ggKrhYEKSHsj4JAj2OdUvjjtnq3L6F6tyOG9R7dNFDBso9q6dBncsyO+uUdaARddSrP0u9sHpisXKQndaKO4vcvEB4fOds9TlddIAAww+sL87ouxEWZK7qpeJlU04osWw4eBYCf++FKzcH+WYlbVWqizvk4JkT2nMtrM+NXnsYaI3QlsHtRoDl83YAd8DS/RiTxVt1cQECHDzg0o3qu1mdh7XLX5PLsisjg8zwsAZ7G9RepP8fWJ7P4PMcXdRhA11FWKevod1/EEvpEiZjYN9kfXYr/mYfGtWZupgAAYaO5FJVBsti9cJFowuUSfkYfEuEdL2L1WqQ6mJdxIgD114HFqkNJJS3dsvUJwZv9w+kmqOzBwhQPHZco07vrldNtDTZtqXp6jEei/fdIN3dexrVhTr7iMaTtWp032J1EazQ70GmPq6rMvWPQawUiAfrVvf6teqfdREBAhSGjjplQMn2cVbOtjbyZm0o5eo9N6iLkC3k5j5ywDUcrM7lsFTruQ7kjmCmvnIy4WZLT6Pa0TFHfUlnDxAgN7pApH2LVK8cuqYplb+egDVC3DN0mXS2Ixr2RFUKIv0MfdxBK5RpAuFvvQvlFsXOHXXqEp01QIDMIJFobXiYmb7JwL97QTAs5PfD5bmj6yjc6UIfz8JksYVWiJNGav9FBvWuNd7bqHaBXIGFCpAZUI7yfQtVbyZXR3bpeMeuQe3orFNf0VmOSrzQoI4BqSJw7fq4oZIuC04qB0Co/QtV1/bZI3ejJcBhAmZcU2bjDBaJ6wW5UbBQPfSPOvVZneWoB9ZSl4Iwz2c6U/MsFNaKu4M1VAAfUJTJPQtUX7pFIqnkTAbKBMW6bsccdYLO8qZB13XqjN3z1G3eLYp0+dBCwZp3dgYWKoBnkTKtkTwiwTJdrZO/aYEJZwk3XQYRyrNQDWrv9qPc/Q2QA7RI+7JZJO7YgUhQlh/r5G92hCCLX2YiFINs2ixQXUf7ejJABtAt4TZvJovEXay+wCJlxO5GtTirhYI88X3v3jr1rzp5gKMdyYmqFIP+2/SdqsAiFQbI6pZMayjZ8XRlukwnDXA0A+uj4/c0qjtkhypFERhIpD4eWDaoWTp5gAxIwuWD9V6ciVD8uxeyxeccbrHrLAGORnTUq6rkLYO3ekksbkR0zVM/0kkD5EFnvVqW0bpz4waT0vbr1Sd10gBHG7oa1Zkg0YuDNhzg7yeXiCI066QBCsDWGWoc1pXynr/0dSfvLe5qUPfvvE69XScPcLQAVmcMSPMgF8+pg87AA9me+erVzgb1CZ08QIGATL8B2e3jPcZ0QtEDwOctOmmAowFyM3quqty/QB1I9/G5cwe35JUdc9T5OnmAIgHX+dLeBaqLN0VSZcs1KLyAzs656j900gBHOjoXqZM767LMnstUsnOOmq6TBhgiYKF+pS2RHyhrrqm66tRzOlmAIx0g0kKegaRvOuwDuXY3qk3dN6hTddIAQ8SeevVeWKLfc8JKlTE9gQM3qh5YrwqdNMCRCr6xZ898tT19kOmC0C15eY46TScNcJDYWac+K++WSJm0aJ34yD/c6Ue3zlVv00kDHGng+xs669VmDjB37FLJxN8wW87n49s6eYCDRN+tajzWn+08f0p1p2W3FL+BbHU6aYAjDbvmqq9yG5yvr0ol0v4F4vK92tGg/kUnDTBM2DlbfQFeQE/6g4UcB5Cqo2P2wb8jMMBhANZK9/IMJHVQeaDI+3hwRb6okwUYZkDuNek3TOSqEb2BOjVXJwtwpKBrjjp/d6PaLsRJGVRuRGBA730jXwb5ZkP3tepUrEef4QZPquwPQPaYzB7ZOT84yD1iwPeAd85T1+hbDf5gypWhxWp/d2Nw7nGosbNeTe+7WfWmWidZO92skljHXsn7fTppgJGMzkb1vl3zVBd37LyBZJCdprnqzuB/wR56wM07DkR6hv/cLXUMxFrVq7+9GZ9aPiKxvUGdLRsPKSfyPO/YO1/1ds5RM3Wyw4va2hJlPFzmh4n2yHM7a5Mlo6PWdFW1dkmoev2ScZXOd6XdBQIWKMGHBlOtkzw/Vq92dtSqk3SyACMZO+rVOUkMYiqZ+GpjDO7+voYRMohh5yJVteE5ZdjPqcq1z4VMp/2sWntkbdMbViQ0/e6kmnpXUk37dTJUua5XheNf0LF5satBnccbEKnjoHf19vCfCuhkAUYyOOt1zlVtXDNxMCXcJGRaNGI2HsLxb6hp9yRVRXtS1WxKlprOC+f+aO3IevWwaf2YJFKm44aaO5Oq3PovHZsXfXVqPIjTnj4OWMfOh6sdnO8dKeAt8T2NasWBBerB3kXqwT0NI2xL1oh/HZbJVdKKNcnSiP3sh65q+ycdOzJgWFerqZv6yVS1PqnC1td0bEEgabB2vZ3jcADjsOsGNS+ZDDYfAgwn3iRkChDg0CMgU4AAw4SATAECDBMCMgUIMEwIyBQgwDAhIFOAAMOEgExHMWo3j1Ixe4KKrZugZm6eoKYsK+6mAPNJQBkzfzdB1daO0jF5cfLkW8dLnQyTlr9F/1wcjKVlUq/0ISXMRJumWAd/64Fls30ZcKKx9ASJ8+tE2gvy9P9gyHT5irf58p6yemg3sKust/rjJUF/T8Vwk2lymzvOfp263intxffhkqXH+mVR3kPBNxuOcXVm3YRjUc7pk5YP053NWOsHVSTRrSLxbhVt7Vaxtr8pw/mojs2NsD0DCtENgbuhci3KaWlFeXkfU56AQS2JtTyqYu2ok/W2P1twvcDba5reVRJbcwXa3aYqUK/XBi9EW7pR3t9U9Z3fV5euKv4KS8w+Thn2Lapyndsv05mtqhaM0bFqVHj1x0sr2p4QmXl1Sv8TbTn7P1QyhZsuwti8ljJWu1TEmaxj84Pkq9loKtPehjHqb7OJsvhZs/EqZa5y3xVuNP1wWMgUsT6nqjZegTofkXH260RgPwy7E2NXM6rc+YzOkRvlLf8WirU/4JfFsTGabynqfqMQuW2LqzPx7pLKNd1l0eYrdexBwmw5D41KooIkFDCpZmxOhkznNh2bHdOsYyCM10XQ0VY3xBB4nyvc/DGdKjNoDU2nXa6p6LyhaXcnQxHrWp0iN6JNnyqpbH82xLoq17rt9trgB/zGPvFaTOW6h6GAP9S5C0O45b0YNCg8AuVjOj3yO/odiiSWo/ztbt9T6mZ9TGtY2d9oOhQyTWn+CvrZKWWzvmrkj7b0oZ7LdYqcGAt5QXEeU9N/445RJnlNvwefib+LsplWWMbxYMhkWN9Ge3tE/pRhxjFCQD2hWBsnvxt0zuzgmETbnnX1huMLvQHpx8Scwh6LJ+kMZ4mCrrntQZh5H8bLLk43ssJo+aQMjic4KFBJLP738TXW+3SKjBgVtWeFKtb2QkmTbkgguAqiws40lUxmvzrCi50miEghs85K5DHjTwpBcwFllpj2lVDmf8gAMy/rZfsp4NQgBEC7TNtVhmr8Vm79QpeUH+XWuyHk/b7QzfhOKNkX0cc7RCnZT4mjUuCTMpDZPL5AJotsKJZM5c1fQh27ZdIw0BfWW7l2J2bkr+oUOXGMaZ1XUgGLJnUiP9vJNldvHCwvfhrO7xCWS32eThRJplKj+Voofa+ML9ucqT6ZiPA7y/cmPcP+ZV4rU25NF5Jy3JkX5YZM60EdmxvGr09AHZ1+vfysXPcqxmyY/h1ORcvJaFibqpLZ12+g3G7OBdNaqKa6lyFDUDoo+R5RXg626WzVqbLDsJ7rJ9NalOE8rWOyY8rqL4J4+6QODhIHgcphWFfBpYDLlxJoXdkPxlOJqPAcxHKsBwpBKpnYRhk81oXfWI4rK+222LtCbNNVmOXCzk91CZlROJlCykh8Ge4ILFIKkWKte1BHYQ85VqDcCMiROllGWg6EDGs7fq8YIC/DvkHkSSWnRWZ9Xp5iyGTal4mye0SSSc15HfoyJbU+jPcv4AF1a31xx4nW0LAW65IyYyIm4rC1S9rKfEKI9dsKIkQ0/h6OlU8mTrCGdZ+OHSYY8Z/03xJGpzh4YbgGWXD8NOskWIc1ImSZwex7Q0bzXBk0CBGD9fJpP1yXfZ1CN4huknQK9SHPmIg1X8dmBtsTbXnFtWIkh8wq+1S5/T2dYhBC0dbZWAv0EwoDi9+eE1cmH9LJJANHC5TgIwlbSqLxb7v+tz3hxGjTO8vY/khipSy2c6FQMk1cekLItGFRIGOZOKCcFWs71ORVX9cp8sO0E+LSeO2XWdzZgnZmXtNFWqKQEV2u/jwMhZIp0vwBktUnEolS0b4dZVyoUwxEVeIdsIJ3Sfmsh/mira+KO5cFpxpLjy0xrM39lhP10FPg+j0fTHsl6uqTfNSJ2JpekLxRxw4PxsXsGSVVa/tcpWOnIATDXp3NXSmNNH8pxFmfaTnzhO1NYh04Y6MMun+jYk72/yphWCt8n5wzPmcZI36Gjs0Mw1rvKwbbyXpzEMlH2FqGtBAa8lHwaOOYqLPiyymbCRmRkUwyo3VgdjxOpyoehZLJSFzvKgz6yjbIhGOX69i8KINiw/3ZKgoqbaecW/tKI02X6CSZYdi/7VdUHQolk2H/yicGZVXRvksmzhw4sdo+rbSi5QW4hW4+TuqRONZPOZYJ9JoqN+gxRXCt229z7nDy4caIs1G8FWmfHtfIiuF9p99ZMfs4zIJ/dGd9No4zi7NDTGomUECVFJpWasNei4b+iM/nSP6pVPr4jTr1YBjWIn+3KCKzfY+KNp2pYwdhfFXTp0qjide1Muv22U/DKhSm1NGWe3wFhhAxs/Womjxb8elk4kxLMnPSKOKp00EohEyGVedOTK5rWQLlHh1pLu5F+Fy3pm4iUGZh6wFoVe62yw6cHlsvbyFkogsVbd3mk7eC3k3zOh2bE6GIdZs7UULGlHesrQN5P6yjB4Nra3pGnrvNybVqbbIskviATjEYfI6seuOufoPBCdx+Qo4Khh1h+1F/RnLJ9AIGffDsDWuFNdIvZTbgYFPBY87nRcmm6s5BkKVR52HOOjqXjwmx+OmlEecRn7h0DQ3r1ox1eTCdb/UrBpX6HuaJ6Nj8MKwWf0aiMDFDj4o0T9WxmZFOJvY31v443M2sLkhByECmc6dZ/Q8HRpzrxZcXItGSboKSWJvPq1p5vE5RGMoTVQPIJHIuYNPiKripJibH1DV0IWQyYE28pQJlTHmFV39cx+ZGzD4f6beJLnleh7E65zHJ2EjT1aGKdnhT7oTD+kDKRTp6MEwnZYdST4wRq/CjhaIQbv6G2xk0Tpi+fj8aeZ2O7UfVs2OgZJ3iw3tkql5zmoquOhGK94TMSGhwCGuV0ormL+lcPkCkS0L+Ah6d4pbsFCv7op2Hsob9k373AXVWru+Ashf85Cfa+QH0ZadPDHftgFk6B9LJxDYb1h06dujIQKaPz+LhJSwGz7I8i0RLKN9bHpLD2iLAQ8hS01rly0z6zDqtb+okuRFuqlTTUohYEJnglvrehiaT0fzvOjY/wtZTojsy2bVzMp6oYzLiHdOWnYTx2C16yDqRNxSJP//WTOthunKmjbWyt2mBMa1a/49Cd0SLxxS4WR5BWKHL4sHnTXT9DOclNy1cpojTPSZmuW9INazf++6fDKQ1+IWPRuvnfWUCEUOV7dtHR5qy705NWj4BirVXSMs8MsPaG3RsYZj8v+ORp8Mvg/Ub1j06NjPSyUTLZjiOjh06MpCpwbKOGQ3lkXUo3V7G0WWOtT2kzF8V/Uj7+Ij1Pkxa/WMp5XECs76lk+TGEG5AYHJaOMDtkrW0dYGOzg/D+ZMQkPlpZUz7yZzHK1xTRZzFvseBUII2j2bb0xFOnIqx7B04Mdp36thDAJ5+m/FXUpV2lGklPtGQdvZjOteo6vX7RGCwPiGzud7fqKA7JZbJnZkgkPtBhv6rGvJmnrghgmYdcCVC4TxnBFxUGg5P/P124e/iBGGsOQXC6z9fEGW279axmfGGkAnucMR+/J1TnfeHovHHfWVyJ6r7lbHqFJ2rOBirzpAx8MjEw81I/PVR+Q7TPRRJpgk1TWeOjTmv+fLFMgF/P316Teu7dJL8SCMTZP/X3GQCwtbZWJq83j8BcYziS9LPK0dHrIWhyjV9IhMGeUGMdZOOPkQw7Vn9QownR1e29p5U2TzwrTSGc7trteiicdHY/AMdw8Xr+4RkHETX/L424K4eNzoMe5tvbl2//CEdmxkumeCiHYVkQtmYcF4oMe2/+BOM5yKVr/qIzlE8OA5SliYTyFBiWL+eWOhbkIq1TLGW82Us2Xamp1WNFHgrwcNgMj2bl0yE6SzzzjulfuoWt+hTwa10Eo1pqAP0dKgThxSG8ws1A2sYEoUVU4GiiYt1rHtfLRJPiEKjUaFIYscY7v54YCeEILpT0ZZtqnzFu3WsUjM2jUO5r7odxkAz5Fv7HM1kghxApGfKInZCyOQpIyzWKKO5RecoHulkoszCdquOzY9iyWTGPy0bSj6ZZLIdvN7OhSGSqcSM/wzt2y91C5kwiYctX2fp8sLq/8XfZaTuGdafVTTHOeiwIAwrVLn2/+gWeELEQrZf2SlQClbiqBDcak0BbwGb9n2+UGQBbS3XsRAYNxOcrQPIZKzJ/X+SjmYyQU5Y2zw1cY59Asqu82XLdvIyZ7SINUcqhExULk0mktO0Hv3grAK3gYsk0/ga5+NlFZCTRyb0ryzqOOfMWDFOJ8mPoVom977dS35e7kiHrT/oWBA9YfqWi4FeVdi6QsceYvB6RbUeVLAZbshDUMZjJW5y0+dFmRnH9U7EuUt+T0XYjvlbkBwQ3ur14M4iPSJ0Kikvypp5/OrwylOlLE+paa7D9hodWxhGNJnsZ2O1sPjoZyja0iPK4N8eWNOByaT4/9phxM8IcUL0lBukKqts6zmpqin3FTEPRZKJpCmLYL3sTQaorzTWsv+YQrfGiaGSiSi3wiI3sUxt9JheOanKOkvyU+dSN0aqNvC2fe6D62GD6TzmC4UWhCf+PAOamCyFJWpwG50AyeJ94yoSgwZ6VLR5VkjOG6AQTBtre0AUk6AyekSjX21Y03OedBOXrTwegt0wQNCx9qfQlrN0ivy4HO7lgN08EgMWNBfeQDK5h7aQQyTxNcjMtcIklMivvQNpM1/HyYLjpyw7qSRsbXI3g1APg6tQhe3mhZtnFOXmEWbiGj8PlVbWgE2Ftzts/3HIZOIBb6qbKdv68VnqAnk6oad/DLmL57Qf1KF7UeB5UyThXi0Sdyz+mpwST9o8FgTZI7+5V1PQsMEu2thY/PRQtPVJLRD3NoThnhmUGs2WO6j4nfepeNBbCHg+IqYa+Vim5LUNHZsfEedaKJbrV8tuztq+kGnlfszkDSeThtH07ZBYf7aVhFqXLInE/3G8d/xQKMJ0b/TEJe1HmYWcq/DhRtO6xp/NGQoiU3yhuyGFNlPOHP9ctxhSwQNpM2VdUyyZJL+zzr2Bg/rR3lFYh46tsD45YAyrNvSCtMXdJDkolCfeIQPp+dvVG0Es3QDDcnfi5IaE/TjSZD5MNOz7+91BfJYnPnH69PgZZZWtO2TWZahav1VF89xM92BYX4aA+UCZLpOD69w2YNs9F0xYNhE08nIi4Ge+mwyHiUwn1Cx/S4lhPSmzKNNQOWRGtYt7M225c/WAS66uguW/DAq5hExnt7/drPPmJxOsXtU692DcIxMfMiwEUR63bBp4164YMhFRyLVyfZc3XugDx2sv5OdebO33sjKvG/n8Vc3dJvL8t/7l4DEGSlTCSj0lcmeoZeicgU7uFYWmYoatqM4yCGOi9q/kkQSSUj6dVejUlaKQMnNQmeCGFAr3+ad7fQVjG7hr8/2V+V09eVH+upddF4+KuZE7aFtSn5rNiMNlmQhOaLH2R7TsXOWUPC0/0yny4oRK63Mlsbb++4xQJpD0xVO99W82RO2PuB6JnnQYCiETwTNDuqa6b2j36zJ2eYC19xpXN3R9zFssmYAQJ/jUIwZv7BiETPZz/vrfAzdJDCeCNPXwfuagjLmQwffzPltXEORgFbOaN5Ozk5HEIpjHle46BwrJK0CmM03nGITR3E0yHPfEmZ3gbgt3VTzlEKtl5z5fSkOJac0UYnsConWsaH8IpMx6Q+A4Y9UpEM4Lsl3PdtM15cNg0fhndZLsOJxkIqbcfmaIdXuTAL+LwsEFKxDo+8O+ksoEREJBUbKBm0Gx9idcxUMeLxRIplKz+Sv9j7ywf2t7Q7HWxDtyKWbYqoYcYJV0Hsk3NDIdE7O1jqWU5QXqXHnzZYPW6Lz5w3t7nPCn3nWNXCgOW5WqWLc6G0oMp0IeCZdGyGAsxAx/k3xnYyvanpTt12wQV9He55OJN9L50BjzclAjLVi/2N/RqQuHYV3vDhZnTVoZuj/OE3Jj+XLMMKkhbF0cql6/xScDAycBw7Z0ablxuMk0sXZ0yGy+UdY9Xn/RlhAUe2yMSlEATOe7IcrfszK05rHWbWVR6+cn8C5lqrzMtrNQvvtIOMkj/UadzFeoZeKzXGYi7rv4CLyHGYrYbXJ3M6W+cVgihHj3k+1j+e4BvhuGSCa4tu9XsZZ9fn/9AHJVrtsvTy2nYlLrWzCmFe7/ynKWjKuwLsUEtF4IZ8ZrhsU6va3aOac0mnhehO8KZikqu1W+y5UNK/c5z0S7NMRn7WVQxM14EaFRBMdBClsH1BW3n6xTF4doYp4MOH16WhuZiZztaN/WAYG7OP6sDGGKuxp/BO15py4pNw43mQQY1EjL4gGKxiOJWNsjqgaKkAe18DJQ/haXkJCBWOe2ZMhd6L+SJi+uJzi23JzZGOKDiV7fCyUTcGx45anQnef6Nz9QrztGA+sznFfld6nT+RPq+02/RRsimXiOaWLSn643qzyZye2HuI26Brr2U+7kZdmr9fnnfLRhJfo5e6JtlyLfNYNcwiGDW8dUIApU3DQb6w58d8m1UafKDq6p5FEJdIpC8g6CQa4y095xMh+pHhpCKtw8W3a82D4hKMrmZ2oQRUC9HCz68RXtD6rJqwuvkxsUJKy3YSFkhG9/sBhEJufPZ/8AljwLzqqtHV0asZ4RhfYURIiN8SnkWRxa7Yp2dy0hZSA/5ZIuL7rwiB8Via+UfKb9oIw1x4/E4C5vgTiOj1REWy3Jx3ppKdLrY0B9oVj7XrlFY9inSfu894gY1ktFk4kotz+I/r4g5UtfEWru7IMOL9EpBoJuXtiZXBLDsqX8jg/Cit6MJUUN9PdsnWIYYNo3qxlb3INXukcMPD9yO/whnSo7ypv+E0pzQPJxoFgOP69+AAPm/HRiMa9nyoCxVYmrS6rWb4aQdshWOctODdxK56BUrLlPVa75urpsQXHPA/Gmcdh6Xs3c7CrTzC08pM7+vEyh4K7RD+532zjzPt66f+kj03PfEys1HchyXY8vS4YfPQRFyXPw7OHSm04sibZOgSx+J0Rmf3w56e9VGx7DuFbzsXDJw6dm0Wc1A7Ll2deU5k/L74Vi4sRSTEZLSyrXPMqHG2U8Uut0n316Wk2+/aOiC1w2RFtf49uxRO9gHYdEJsKwfuc+vQAiCani27Kurel+ms7MMTE+77Tx4rKYMxl9ryr4wdOCII9aoFAzMU2e2mTgd6O5KusTuOmga1C9oT8/Q/UmlJHnEfViwKd+WWZqHQyxtmkYoIN7+IsHwyxb9/u46UO8xZ0Kvt+gcp3bRn7qM7i84OLel6Xl5g1bl+rYwsDNpUg8qmKpY6o/uZZJxTexXjCap4IETFPUoXEqLqldeuyYaHyKjEdqnRLSFDza/DGpj2kP5gWivDzt7epxqWLYL/L/9OrYjDi20roY7uBPxvFB1wABAig1vqLl5JDJq0ncooc7K6Syr8x70yZAgAADMcqwpodquCblZgbXzHD3hnphOECANzOwBm3Vm2TuRk00YSm+0z5AgABFgM/jeTcwGKbdzaOH/K9dDhAgQAqiLT/zj3L0xkMomnh2LLfcAwQIUAD4BqTqjQtlo0GIxHPNhGy/l0WsSTpVgAABsmLS8rEhvuU32topZ1jcbPBuxMg78VoWy/Z+gAAB8oC30XmPjofA4ta1yYZDSaztRRWJ1+pUAQIEKAh86yt37sTFa9taVtH6G3liIUCAAEVCXqbCWzpOPd98dUG+f4EaIECAkQSl/h8mmq15k1yedAAAAABJRU5ErkJggg==;" vertex="1" parent="1">
          <mxGeometry x="191" y="389.7900000000001" width="80.5" height="32.43" as="geometry" />
        </mxCell>
      </root>
    </mxGraphModel>
  </diagram>
</mxfile>
